ISO-10303-21;
HEADER;
FILE_DESCRIPTION (( 'STEP AP214' ),
    '1' );
FILE_NAME ('feet.STEP',
    '2026-09-26T18:50:53',
    ( '' ),
    ( '' ),
    'SwSTEP 2.0',
    'SolidWorks 2025',
    '' );
FILE_SCHEMA (( 'AUTOMOTIVE_DESIGN' ));
ENDSEC;

DATA;
#1 = EDGE_LOOP ( 'NONE', ( #438, #813, #88, #335 ) ) ;
#2 = DIRECTION ( 'NONE',  ( -1.000000000000000000, -0.000000000000000000, -0.000000000000000000 ) ) ;
#3 = VECTOR ( 'NONE', #85, 39.37007874015748143 ) ;
#4 = DIRECTION ( 'NONE',  ( 0.000000000000000000, 0.000000000000000000, 1.000000000000000000 ) ) ;
#5 = VERTEX_POINT ( 'NONE', #868 ) ;
#6 = ORIENTED_EDGE ( 'NONE', *, *, #743, .F. ) ;
#7 = CARTESIAN_POINT ( 'NONE',  ( 0.04166666666666718477, 0.1333333333333334147, -2.646981876640420062 ) ) ;
#8 = EDGE_LOOP ( 'NONE', ( #514, #276, #984, #982 ) ) ;
#9 = ORIENTED_EDGE ( 'NONE', *, *, #486, .F. ) ;
#10 = ADVANCED_FACE ( 'NONE', ( #390 ), #179, .F. ) ;
#11 = CARTESIAN_POINT ( 'NONE',  ( 0.3333333333333333148, 0.3333333333333341475, -2.813648543307086580 ) ) ;
#12 = CARTESIAN_POINT ( 'NONE',  ( 0.04166666666666718477, 0.3083333333333326265, -2.646981876640420062 ) ) ;
#13 = ORIENTED_EDGE ( 'NONE', *, *, #752, .F. ) ;
#14 = DIRECTION ( 'NONE',  ( 0.000000000000000000, 0.000000000000000000, 1.000000000000000000 ) ) ;
#15 = VECTOR ( 'NONE', #170, 39.37007874015748143 ) ;
#16 = VERTEX_POINT ( 'NONE', #713 ) ;
#17 = DIRECTION ( 'NONE',  ( 0.000000000000000000, -0.000000000000000000, -1.000000000000000000 ) ) ;
#18 = CARTESIAN_POINT ( 'NONE',  ( 0.1666666666666668517, 0.1333333333333334147, -2.736626537581092755 ) ) ;
#19 = CARTESIAN_POINT ( 'NONE',  ( 0.3333333333333333148, -0.3333333333333330928, 2.813648543307086580 ) ) ;
#20 = FACE_OUTER_BOUND ( 'NONE', #615, .T. ) ;
#21 = CARTESIAN_POINT ( 'NONE',  ( 0.1666666666666666574, 0.1333333333333334147, 2.521981876640420062 ) ) ;
#22 = DIRECTION ( 'NONE',  ( -0.4999999999999998335, -0.7071067811865486830, 0.4999999999999986677 ) ) ;
#23 = CARTESIAN_POINT ( 'NONE',  ( 0.1666666666666667962, 0.3083333333333326265, -2.521981876640420062 ) ) ;
#24 = CARTESIAN_POINT ( 'NONE',  ( 0.3333333333333333148, 8.366284480596805737E-16, -2.480315209973753099 ) ) ;
#25 = CARTESIAN_POINT ( 'NONE',  ( 0.1666666666666666574, 0.3083333333333330151, 2.521981876640420062 ) ) ;
#26 = ADVANCED_FACE ( 'NONE', ( #554 ), #327, .F. ) ;
#27 = DIRECTION ( 'NONE',  ( -0.7071067811865483499, 0.000000000000000000, 0.7071067811865466846 ) ) ;
#28 = DIRECTION ( 'NONE',  ( 0.7071067811865479058, 0.000000000000000000, -0.7071067811865471286 ) ) ;
#29 = EDGE_CURVE ( 'NONE', #522, #343, #239, .T. ) ;
#30 = CARTESIAN_POINT ( 'NONE',  ( 0.1666666666666667962, 0.3083333333333326265, -2.521981876640420062 ) ) ;
#31 = EDGE_LOOP ( 'NONE', ( #736, #806, #448, #877 ) ) ;
#32 = FACE_OUTER_BOUND ( 'NONE', #293, .T. ) ;
#33 = LINE ( 'NONE', #729, #977 ) ;
#34 = VECTOR ( 'NONE', #489, 39.37007874015748143 ) ;
#35 = DIRECTION ( 'NONE',  ( 0.000000000000000000, 0.000000000000000000, -1.000000000000000000 ) ) ;
#36 = ORIENTED_EDGE ( 'NONE', *, *, #487, .T. ) ;
#37 = CARTESIAN_POINT ( 'NONE',  ( 0.000000000000000000, 0.000000000000000000, 0.000000000000000000 ) ) ;
#38 = DIRECTION ( 'NONE',  ( -1.000000000000000000, -0.000000000000000000, -0.000000000000000000 ) ) ;
#39 = EDGE_LOOP ( 'NONE', ( #462, #453, #620, #505 ) ) ;
#40 = SHAPE_DEFINITION_REPRESENTATION ( #635, #460 ) ;
#41 = DIRECTION ( 'NONE',  ( 0.7071067811865473507, 0.000000000000000000, -0.7071067811865476838 ) ) ;
#42 = FACE_OUTER_BOUND ( 'NONE', #594, .T. ) ;
#43 = EDGE_LOOP ( 'NONE', ( #400, #801, #859, #308 ) ) ;
#44 = AXIS2_PLACEMENT_3D ( 'NONE', #11, #310, #481 ) ;
#45 = PLANE ( 'NONE',  #500 ) ;
#46 = VECTOR ( 'NONE', #970, 39.37007874015748143 ) ;
#47 = DIRECTION ( 'NONE',  ( 4.038221641405481993E-15, -0.5773502691896260641, -0.8164965809277259234 ) ) ;
#48 = VERTEX_POINT ( 'NONE', #626 ) ;
#49 = LINE ( 'NONE', #187, #887 ) ;
#50 = DIRECTION ( 'NONE',  ( 0.000000000000000000, 0.000000000000000000, -1.000000000000000000 ) ) ;
#51 = ORIENTED_EDGE ( 'NONE', *, *, #457, .T. ) ;
#52 = DIRECTION ( 'NONE',  ( 0.000000000000000000, 0.000000000000000000, -1.000000000000000000 ) ) ;
#53 = PLANE ( 'NONE',  #207 ) ;
#54 = EDGE_CURVE ( 'NONE', #423, #226, #99, .T. ) ;
#55 = EDGE_CURVE ( 'NONE', #809, #609, #94, .T. ) ;
#56 = ORIENTED_EDGE ( 'NONE', *, *, #529, .F. ) ;
#57 = DIRECTION ( 'NONE',  ( 0.7071067811865471286, 0.000000000000000000, 0.7071067811865479058 ) ) ;
#58 = ORIENTED_EDGE ( 'NONE', *, *, #518, .F. ) ;
#59 = VECTOR ( 'NONE', #653, 39.37007874015748143 ) ;
#60 = DIRECTION ( 'NONE',  ( 0.4999999999999985012, -0.7071067811865495711, 0.4999999999999987232 ) ) ;
#61 = EDGE_LOOP ( 'NONE', ( #567, #990, #535, #572 ) ) ;
#62 = VECTOR ( 'NONE', #332, 39.37007874015748143 ) ;
#63 = FILL_AREA_STYLE ('',( #965 ) ) ;
#64 = VERTEX_POINT ( 'NONE', #724 ) ;
#65 = LINE ( 'NONE', #143, #834 ) ;
#66 = EDGE_CURVE ( 'NONE', #48, #771, #943, .T. ) ;
#67 = EDGE_CURVE ( 'NONE', #488, #719, #478, .T. ) ;
#68 = ORIENTED_EDGE ( 'NONE', *, *, #987, .F. ) ;
#69 = LINE ( 'NONE', #374, #816 ) ;
#70 = ORIENTED_EDGE ( 'NONE', *, *, #714, .T. ) ;
#71 = LINE ( 'NONE', #671, #403 ) ;
#72 = ORIENTED_EDGE ( 'NONE', *, *, #528, .F. ) ;
#73 = ORIENTED_EDGE ( 'NONE', *, *, #385, .T. ) ;
#74 = DIRECTION ( 'NONE',  ( 0.000000000000000000, -1.000000000000000000, 0.000000000000000000 ) ) ;
#75 = PLANE ( 'NONE',  #948 ) ;
#76 = AXIS2_PLACEMENT_3D ( 'NONE', #926, #232, #540 ) ;
#77 = ORIENTED_EDGE ( 'NONE', *, *, #959, .F. ) ;
#78 = ORIENTED_EDGE ( 'NONE', *, *, #348, .T. ) ;
#79 = VECTOR ( 'NONE', #281, 39.37007874015748143 ) ;
#80 = DIRECTION ( 'NONE',  ( 0.000000000000000000, -1.239088072561881342E-16, 1.000000000000000000 ) ) ;
#81 = PLANE ( 'NONE',  #689 ) ;
#82 = EDGE_CURVE ( 'NONE', #107, #245, #779, .T. ) ;
#83 = VERTEX_POINT ( 'NONE', #775 ) ;
#84 = FACE_OUTER_BOUND ( 'NONE', #544, .T. ) ;
#85 = DIRECTION ( 'NONE',  ( 0.8164965809277253683, -0.5773502691896267303, -3.837913028240529691E-15 ) ) ;
#86 = CARTESIAN_POINT ( 'NONE',  ( 0.3333333333333333148, -0.3333333333333341475, -2.813648543307086580 ) ) ;
#87 = CARTESIAN_POINT ( 'NONE',  ( 0.1666666666666663521, -0.4724120173669558165, 1.879973247276257364 ) ) ;
#88 = ORIENTED_EDGE ( 'NONE', *, *, #497, .F. ) ;
#89 = CARTESIAN_POINT ( 'NONE',  ( 0.006311327607337635301, 0.3333333333333341475, -2.646981876640420062 ) ) ;
#90 = EDGE_LOOP ( 'NONE', ( #833, #547, #602, #902, #524, #763, #362, #906 ) ) ;
#91 = LINE ( 'NONE', #967, #420 ) ;
#92 = CARTESIAN_POINT ( 'NONE',  ( 0.04166666666666718477, 0.1333333333333334147, -2.646981876640420062 ) ) ;
#93 = DIRECTION ( 'NONE',  ( 0.000000000000000000, -1.000000000000000000, 0.000000000000000000 ) ) ;
#94 = LINE ( 'NONE', #174, #350 ) ;
#95 = ADVANCED_FACE ( 'NONE', ( #410 ), #706, .F. ) ;
#96 = DIRECTION ( 'NONE',  ( -0.7071067811865476838, 0.000000000000000000, -0.7071067811865473507 ) ) ;
#97 = LINE ( 'NONE', #266, #848 ) ;
#98 = LINE ( 'NONE', #618, #759 ) ;
#99 = LINE ( 'NONE', #699, #575 ) ;
#100 = CARTESIAN_POINT ( 'NONE',  ( 0.1666666666666662133, 0.2494077682344535418, 2.688648543307087024 ) ) ;
#101 = ADVANCED_FACE ( 'NONE', ( #538 ), #81, .F. ) ;
#102 = CARTESIAN_POINT ( 'NONE',  ( 1.362001941183208054, 0.1333333333333334147, 1.362001941183208720 ) ) ;
#103 = VERTEX_POINT ( 'NONE', #861 ) ;
#104 = CARTESIAN_POINT ( 'NONE',  ( 0.000000000000000000, 0.000000000000000000, 0.000000000000000000 ) ) ;
#105 = CARTESIAN_POINT ( 'NONE',  ( 0.2563113276073369362, 0.1333333333333334147, 2.646981876640420062 ) ) ;
#106 = FACE_OUTER_BOUND ( 'NONE', #818, .T. ) ;
#107 = VERTEX_POINT ( 'NONE', #471 ) ;
#108 = VECTOR ( 'NONE', #449, 39.37007874015748143 ) ;
#109 = AXIS2_PLACEMENT_3D ( 'NONE', #7, #718, #398 ) ;
#110 = PLANE ( 'NONE',  #646 ) ;
#111 = DIRECTION ( 'NONE',  ( 0.8164965809277208164, -0.5773502691896329475, 1.281975124255695159E-16 ) ) ;
#112 = ORIENTED_EDGE ( 'NONE', *, *, #702, .T. ) ;
#113 =( NAMED_UNIT ( * ) SI_UNIT ( $, .STERADIAN. ) SOLID_ANGLE_UNIT ( ) );
#114 = CARTESIAN_POINT ( 'NONE',  ( 0.1666666666666666574, 0.3083333333333330151, 2.771981876640420062 ) ) ;
#115 = CARTESIAN_POINT ( 'NONE',  ( 0.3333333333333333148, 0.3333333333333334259, 2.813648543307086580 ) ) ;
#116 = ORIENTED_EDGE ( 'NONE', *, *, #205, .T. ) ;
#117 = DIRECTION ( 'NONE',  ( 0.7071067811865476838, 0.000000000000000000, -0.7071067811865473507 ) ) ;
#118 = PLANE ( 'NONE',  #917 ) ;
#119 = DIRECTION ( 'NONE',  ( 5.768888059150702789E-16, -0.5773502691896233996, -0.8164965809277276998 ) ) ;
#120 = ORIENTED_EDGE ( 'NONE', *, *, #814, .T. ) ;
#121 = FACE_OUTER_BOUND ( 'NONE', #186, .T. ) ;
#122 = AXIS2_PLACEMENT_3D ( 'NONE', #250, #715, #323 ) ;
#123 = AXIS2_PLACEMENT_3D ( 'NONE', #952, #662, #568 ) ;
#124 = DIRECTION ( 'NONE',  ( -0.7071067811865472397, 0.000000000000000000, 0.7071067811865479058 ) ) ;
#125 = ORIENTED_EDGE ( 'NONE', *, *, #385, .F. ) ;
#126 = ADVANCED_FACE ( 'NONE', ( #243 ), #320, .T. ) ;
#127 = DIRECTION ( 'NONE',  ( -0.4999999999999991673, -0.7071067811865495711, 0.4999999999999980016 ) ) ;
#128 = EDGE_CURVE ( 'NONE', #165, #533, #552, .T. ) ;
#129 = EDGE_LOOP ( 'NONE', ( #515, #229, #605, #559 ) ) ;
#130 = ORIENTED_EDGE ( 'NONE', *, *, #437, .T. ) ;
#131 = FACE_OUTER_BOUND ( 'NONE', #258, .T. ) ;
#132 = VERTEX_POINT ( 'NONE', #455 ) ;
#133 =( CONVERSION_BASED_UNIT ( 'INCH', #750 ) LENGTH_UNIT ( ) NAMED_UNIT ( #146 ) );
#134 = ORIENTED_EDGE ( 'NONE', *, *, #598, .T. ) ;
#135 = EDGE_CURVE ( 'NONE', #132, #920, #844, .T. ) ;
#136 = ADVANCED_FACE ( 'NONE', ( #709 ), #150, .F. ) ;
#137 = AXIS2_PLACEMENT_3D ( 'NONE', #102, #412, #247 ) ;
#138 = LINE ( 'NONE', #446, #819 ) ;
#139 = ORIENTED_EDGE ( 'NONE', *, *, #876, .T. ) ;
#140 = VECTOR ( 'NONE', #376, 39.37007874015748143 ) ;
#141 = LINE ( 'NONE', #898, #317 ) ;
#142 = ORIENTED_EDGE ( 'NONE', *, *, #933, .T. ) ;
#143 = CARTESIAN_POINT ( 'NONE',  ( 1.362001941183207832, 0.1333333333333334147, 1.362001941183208720 ) ) ;
#144 = ORIENTED_EDGE ( 'NONE', *, *, #211, .F. ) ;
#145 = ORIENTED_EDGE ( 'NONE', *, *, #259, .T. ) ;
#146 = DIMENSIONAL_EXPONENTS ( 1.000000000000000000, 0.000000000000000000, 0.000000000000000000, 0.000000000000000000, 0.000000000000000000, 0.000000000000000000, 0.000000000000000000 ) ;
#147 = CARTESIAN_POINT ( 'NONE',  ( 0.04166666666666718477, 0.3083333333333326265, -2.646981876640420062 ) ) ;
#148 = VERTEX_POINT ( 'NONE', #767 ) ;
#149 = ORIENTED_EDGE ( 'NONE', *, *, #135, .T. ) ;
#150 = PLANE ( 'NONE',  #728 ) ;
#151 = ADVANCED_FACE ( 'NONE', ( #548, #325 ), #697, .F. ) ;
#152 = FACE_OUTER_BOUND ( 'NONE', #654, .T. ) ;
#153 = ORIENTED_EDGE ( 'NONE', *, *, #349, .F. ) ;
#154 = STYLED_ITEM ( 'NONE', ( #356 ), #363 ) ;
#155 = ORIENTED_EDGE ( 'NONE', *, *, #879, .T. ) ;
#156 = VECTOR ( 'NONE', #989, 39.37007874015748143 ) ;
#157 = LINE ( 'NONE', #634, #831 ) ;
#158 = VECTOR ( 'NONE', #178, 39.37007874015748143 ) ;
#159 = EDGE_CURVE ( 'NONE', #539, #520, #787, .T. ) ;
#160 = EDGE_CURVE ( 'NONE', #694, #522, #157, .T. ) ;
#161 = CARTESIAN_POINT ( 'NONE',  ( 0.006311327607339386504, 0.3333333333333334259, 2.646981876640420062 ) ) ;
#162 = ADVANCED_FACE ( 'NONE', ( #941 ), #617, .F. ) ;
#163 = DIRECTION ( 'NONE',  ( 0.000000000000000000, -1.000000000000000000, 0.000000000000000000 ) ) ;
#164 = LINE ( 'NONE', #555, #62 ) ;
#165 = VERTEX_POINT ( 'NONE', #379 ) ;
#166 = DIRECTION ( 'NONE',  ( 0.000000000000000000, -1.820488561126394261E-16, -1.000000000000000000 ) ) ;
#167 = CARTESIAN_POINT ( 'NONE',  ( 0.2916666666666667407, 0.1583333333333330484, -2.646981876640420062 ) ) ;
#168 = ORIENTED_EDGE ( 'NONE', *, *, #393, .F. ) ;
#169 = PLANE ( 'NONE',  #851 ) ;
#170 = DIRECTION ( 'NONE',  ( 0.7071067811865471286, 0.000000000000000000, 0.7071067811865479058 ) ) ;
#171 = EDGE_CURVE ( 'NONE', #609, #107, #857, .T. ) ;
#172 = ADVANCED_FACE ( 'NONE', ( #850, #84 ), #704, .F. ) ;
#173 = CARTESIAN_POINT ( 'NONE',  ( 0.000000000000000000, -0.3333333333333330928, 2.813648543307086580 ) ) ;
#174 = CARTESIAN_POINT ( 'NONE',  ( 0.3333333333333333148, 0.3333333333333334259, 2.813648543307086580 ) ) ;
#175 = DIRECTION ( 'NONE',  ( -0.7071067811865471286, 0.000000000000000000, -0.7071067811865479058 ) ) ;
#176 = PLANE ( 'NONE',  #445 ) ;
#177 = VECTOR ( 'NONE', #523, 39.37007874015748143 ) ;
#178 = DIRECTION ( 'NONE',  ( 0.7071067811865466846, 0.000000000000000000, 0.7071067811865483499 ) ) ;
#179 = PLANE ( 'NONE',  #930 ) ;
#180 = LINE ( 'NONE', #707, #480 ) ;
#181 = CARTESIAN_POINT ( 'NONE',  ( 0.4135110028629980228, 0.3333333333333341475, -2.733470873777422039 ) ) ;
#182 = EDGE_LOOP ( 'NONE', ( #907, #288, #77, #895 ) ) ;
#183 = CARTESIAN_POINT ( 'NONE',  ( 0.3270220057259962121, 0.3333333333333341475, -2.646981876640420062 ) ) ;
#184 = CARTESIAN_POINT ( 'NONE',  ( 0.1666666666666666574, 0.1583333333333337423, 2.771981876640420062 ) ) ;
#185 = CARTESIAN_POINT ( 'NONE',  ( 0.04166666666666671986, 0.3083333333333330151, 2.646981876640420062 ) ) ;
#186 = EDGE_LOOP ( 'NONE', ( #58, #375, #9, #849 ) ) ;
#187 = CARTESIAN_POINT ( 'NONE',  ( 0.3333333333333333148, 8.366284480596805737E-16, -2.480315209973753099 ) ) ;
#188 = ADVANCED_FACE ( 'NONE', ( #408 ), #176, .F. ) ;
#189 = DIRECTION ( 'NONE',  ( -0.7071067811865476838, 0.000000000000000000, 0.7071067811865473507 ) ) ;
#190 = AXIS2_PLACEMENT_3D ( 'NONE', #731, #35, #571 ) ;
#191 = CARTESIAN_POINT ( 'NONE',  ( 0.04166666666666671986, 0.3083333333333330151, 2.646981876640420062 ) ) ;
#192 = LENGTH_MEASURE_WITH_UNIT ( LENGTH_MEASURE( 0.02539999999999999897 ), #199 );
#193 = VECTOR ( 'NONE', #482, 39.37007874015748143 ) ;
#194 = CARTESIAN_POINT ( 'NONE',  ( 0.2916666666666665186, 0.1333333333333334147, 2.646981876640420062 ) ) ;
#195 = DIRECTION ( 'NONE',  ( 0.7071067811865466846, 0.000000000000000000, 0.7071067811865483499 ) ) ;
#196 = VERTEX_POINT ( 'NONE', #960 ) ;
#197 = CARTESIAN_POINT ( 'NONE',  ( 0.1666666666666667962, 0.1333333333333334147, -2.521981876640420062 ) ) ;
#198 = ORIENTED_EDGE ( 'NONE', *, *, #160, .F. ) ;
#199 =( LENGTH_UNIT ( ) NAMED_UNIT ( * ) SI_UNIT ( $, .METRE. ) );
#200 = CARTESIAN_POINT ( 'NONE',  ( -1.284979935457212008, 0.1333333333333334147, 1.284979935457212674 ) ) ;
#201 = EDGE_CURVE ( 'NONE', #107, #204, #738, .T. ) ;
#202 = ADVANCED_FACE ( 'NONE', ( #496 ), #871, .F. ) ;
#203 = FACE_OUTER_BOUND ( 'NONE', #236, .T. ) ;
#204 = VERTEX_POINT ( 'NONE', #660 ) ;
#205 = EDGE_CURVE ( 'NONE', #103, #911, #97, .T. ) ;
#206 = CARTESIAN_POINT ( 'NONE',  ( 0.3270220057259939916, 0.3333333333333334259, 2.646981876640420062 ) ) ;
#207 = AXIS2_PLACEMENT_3D ( 'NONE', #361, #764, #687 ) ;
#208 = EDGE_LOOP ( 'NONE', ( #882, #826, #125, #915 ) ) ;
#209 = LINE ( 'NONE', #227, #964 ) ;
#210 = ORIENTED_EDGE ( 'NONE', *, *, #242, .T. ) ;
#211 = EDGE_CURVE ( 'NONE', #16, #165, #722, .T. ) ;
#212 =( NAMED_UNIT ( * ) SI_UNIT ( $, .STERADIAN. ) SOLID_ANGLE_UNIT ( ) );
#213 = ORIENTED_EDGE ( 'NONE', *, *, #561, .T. ) ;
#214 = PLANE ( 'NONE',  #932 ) ;
#215 = ORIENTED_EDGE ( 'NONE', *, *, #82, .T. ) ;
#216 = LINE ( 'NONE', #525, #251 ) ;
#217 = ORIENTED_EDGE ( 'NONE', *, *, #457, .F. ) ;
#218 = VECTOR ( 'NONE', #406, 39.37007874015748143 ) ;
#219 = DIRECTION ( 'NONE',  ( 0.7071067811865466846, 0.000000000000000000, 0.7071067811865483499 ) ) ;
#220 = ORIENTED_EDGE ( 'NONE', *, *, #752, .T. ) ;
#221 = AXIS2_PLACEMENT_3D ( 'NONE', #295, #127, #219 ) ;
#222 = VERTEX_POINT ( 'NONE', #257 ) ;
#223 = VECTOR ( 'NONE', #573, 39.37007874015748143 ) ;
#224 = DIRECTION ( 'NONE',  ( 1.000000000000000000, -0.000000000000000000, 0.000000000000000000 ) ) ;
#225 = VERTEX_POINT ( 'NONE', #866 ) ;
#226 = VERTEX_POINT ( 'NONE', #562 ) ;
#227 = CARTESIAN_POINT ( 'NONE',  ( 0.2531556638036685514, 0.3333333333333341475, -2.893826212836751122 ) ) ;
#228 = ORIENTED_EDGE ( 'NONE', *, *, #171, .F. ) ;
#229 = ORIENTED_EDGE ( 'NONE', *, *, #667, .T. ) ;
#230 = ADVANCED_FACE ( 'NONE', ( #556 ), #566, .F. ) ;
#231 = EDGE_CURVE ( 'NONE', #809, #222, #650, .T. ) ;
#232 = DIRECTION ( 'NONE',  ( 0.5000000000000018874, -0.7071067811865454633, -0.5000000000000013323 ) ) ;
#233 = DIRECTION ( 'NONE',  ( 0.4999999999999878431, -0.7071067811865650032, -0.4999999999999875655 ) ) ;
#234 = DIRECTION ( 'NONE',  ( 0.7071067811865466846, 0.000000000000000000, 0.7071067811865483499 ) ) ;
#235 = CARTESIAN_POINT ( 'NONE',  ( 0.000000000000000000, 0.3333333333333334259, 2.480315209973753099 ) ) ;
#236 = EDGE_LOOP ( 'NONE', ( #56, #149, #836, #526 ) ) ;
#237 = DIRECTION ( 'NONE',  ( -1.000000000000000000, 0.000000000000000000, -0.000000000000000000 ) ) ;
#238 = CARTESIAN_POINT ( 'NONE',  ( -1.195335274516540425, 0.1333333333333334147, -1.195335274516540869 ) ) ;
#239 = LINE ( 'NONE', #863, #883 ) ;
#240 = LINE ( 'NONE', #854, #792 ) ;
#241 = EDGE_CURVE ( 'NONE', #423, #450, #329, .T. ) ;
#242 = EDGE_CURVE ( 'NONE', #993, #103, #342, .T. ) ;
#243 = FACE_OUTER_BOUND ( 'NONE', #781, .T. ) ;
#244 = CARTESIAN_POINT ( 'NONE',  ( 0.1666666666666669627, 0.3083333333333326265, -2.771981876640420062 ) ) ;
#245 = VERTEX_POINT ( 'NONE', #874 ) ;
#246 = DIRECTION ( 'NONE',  ( 0.8164965809277233699, 0.5773502691896296168, 7.090924906039356352E-16 ) ) ;
#247 = DIRECTION ( 'NONE',  ( -0.7071067811865476838, 0.000000000000000000, 0.7071067811865473507 ) ) ;
#248 = DIRECTION ( 'NONE',  ( 0.000000000000000000, -1.239088072561881342E-16, 1.000000000000000000 ) ) ;
#249 = VERTEX_POINT ( 'NONE', #726 ) ;
#250 = CARTESIAN_POINT ( 'NONE',  ( 1.451646602123878527, 0.1333333333333334147, 1.451646602123877861 ) ) ;
#251 = VECTOR ( 'NONE', #584, 39.37007874015748143 ) ;
#252 = DIRECTION ( 'NONE',  ( -0.7071067811865466846, 0.000000000000000000, -0.7071067811865483499 ) ) ;
#253 = VECTOR ( 'NONE', #652, 39.37007874015748143 ) ;
#254 = CARTESIAN_POINT ( 'NONE',  ( 0.1666666666666669627, 0.1333333333333334147, -2.557337215699747812 ) ) ;
#255 = VECTOR ( 'NONE', #405, 39.37007874015748854 ) ;
#256 = CARTESIAN_POINT ( 'NONE',  ( 0.04166666666666718477, 0.3083333333333326265, -2.646981876640420062 ) ) ;
#257 = CARTESIAN_POINT ( 'NONE',  ( 0.000000000000000000, 0.3333333333333334259, 2.813648543307086580 ) ) ;
#258 = EDGE_LOOP ( 'NONE', ( #299, #215, #51, #690, #142, #837, #582, #536 ) ) ;
#259 = EDGE_CURVE ( 'NONE', #450, #225, #427, .T. ) ;
#260 = LINE ( 'NONE', #880, #253 ) ;
#261 = CARTESIAN_POINT ( 'NONE',  ( -0.8309792883961453214, 0.7753872057332547030, -2.646981876640422726 ) ) ;
#262 = ORIENTED_EDGE ( 'NONE', *, *, #340, .F. ) ;
#263 = CARTESIAN_POINT ( 'NONE',  ( 0.2531556638036698836, 0.3333333333333334259, 2.400137540444089890 ) ) ;
#264 = CARTESIAN_POINT ( 'NONE',  ( 0.04166666666666671986, 0.1333333333333334147, 2.646981876640420062 ) ) ;
#265 = VECTOR ( 'NONE', #166, 39.37007874015748143 ) ;
#266 = CARTESIAN_POINT ( 'NONE',  ( 0.08648899713700192171, 0.3333333333333341475, -2.566804207110755520 ) ) ;
#267 = ORIENTED_EDGE ( 'NONE', *, *, #341, .F. ) ;
#268 = VECTOR ( 'NONE', #588, 39.37007874015748143 ) ;
#269 = APPLICATION_PROTOCOL_DEFINITION ( 'draft international standard', 'automotive_design', 1998, #721 ) ;
#270 = VECTOR ( 'NONE', #947, 39.37007874015748143 ) ;
#271 = CARTESIAN_POINT ( 'NONE',  ( 0.04166666666666671986, 0.3083333333333330151, 2.646981876640420062 ) ) ;
#272 = DIRECTION ( 'NONE',  ( -0.7071067811865476838, 0.000000000000000000, -0.7071067811865473507 ) ) ;
#273 = EDGE_CURVE ( 'NONE', #539, #510, #808, .T. ) ;
#274 = DIRECTION ( 'NONE',  ( 3.621579726022362177E-15, 0.5773502691896315042, -0.8164965809277219266 ) ) ;
#275 = EDGE_CURVE ( 'NONE', #966, #719, #647, .T. ) ;
#276 = ORIENTED_EDGE ( 'NONE', *, *, #702, .F. ) ;
#277 = PLANE ( 'NONE',  #369 ) ;
#278 = DIRECTION ( 'NONE',  ( 0.7071067811865476838, 0.000000000000000000, 0.7071067811865473507 ) ) ;
#279 = ORIENTED_EDGE ( 'NONE', *, *, #743, .T. ) ;
#280 = VECTOR ( 'NONE', #717, 39.37007874015748143 ) ;
#281 = DIRECTION ( 'NONE',  ( 0.000000000000000000, -1.000000000000000000, 0.000000000000000000 ) ) ;
#282 = VECTOR ( 'NONE', #725, 39.37007874015748143 ) ;
#283 = EDGE_LOOP ( 'NONE', ( #585, #821, #314, #168 ) ) ;
#284 = LINE ( 'NONE', #822, #624 ) ;
#285 = EDGE_LOOP ( 'NONE', ( #593, #577, #289, #262 ) ) ;
#286 = ADVANCED_FACE ( 'NONE', ( #106 ), #418, .F. ) ;
#287 = LINE ( 'NONE', #595, #177 ) ;
#288 = ORIENTED_EDGE ( 'NONE', *, *, #976, .F. ) ;
#289 = ORIENTED_EDGE ( 'NONE', *, *, #876, .F. ) ;
#290 = CARTESIAN_POINT ( 'NONE',  ( 0.3333333333333333148, 2.219626494852213988E-16, 2.480315209973753099 ) ) ;
#291 = ORIENTED_EDGE ( 'NONE', *, *, #772, .T. ) ;
#292 = CARTESIAN_POINT ( 'NONE',  ( 0.1666666666666666574, 0.1333333333333334147, 2.521981876640420062 ) ) ;
#293 = EDGE_LOOP ( 'NONE', ( #727, #6, #614, #357 ) ) ;
#294 =( GEOMETRIC_REPRESENTATION_CONTEXT ( 3 ) GLOBAL_UNCERTAINTY_ASSIGNED_CONTEXT ( ( #324 ) ) GLOBAL_UNIT_ASSIGNED_CONTEXT ( ( #133, #978, #212 ) ) REPRESENTATION_CONTEXT ( 'NONE', 'WORKASPACE' ) );
#295 = CARTESIAN_POINT ( 'NONE',  ( 1.362001941183207609, 0.1333333333333334147, -1.362001941183204279 ) ) ;
#296 = ORIENTED_EDGE ( 'NONE', *, *, #916, .T. ) ;
#297 = VECTOR ( 'NONE', #421, 39.37007874015748143 ) ;
#298 = DIMENSIONAL_EXPONENTS ( 1.000000000000000000, 0.000000000000000000, 0.000000000000000000, 0.000000000000000000, 0.000000000000000000, 0.000000000000000000, 0.000000000000000000 ) ;
#299 = ORIENTED_EDGE ( 'NONE', *, *, #171, .T. ) ;
#300 = DIRECTION ( 'NONE',  ( 1.000000000000000000, 0.000000000000000000, -0.000000000000000000 ) ) ;
#301 = ORIENTED_EDGE ( 'NONE', *, *, #890, .F. ) ;
#302 = ADVANCED_FACE ( 'NONE', ( #42 ), #881, .F. ) ;
#303 = EDGE_CURVE ( 'NONE', #510, #925, #735, .T. ) ;
#304 = ORIENTED_EDGE ( 'NONE', *, *, #666, .T. ) ;
#305 = EDGE_CURVE ( 'NONE', #148, #64, #351, .T. ) ;
#306 = CARTESIAN_POINT ( 'NONE',  ( 0.3333333333333333148, 0.3333333333333334259, 2.480315209973753099 ) ) ;
#307 = LINE ( 'NONE', #711, #193 ) ;
#308 = ORIENTED_EDGE ( 'NONE', *, *, #29, .T. ) ;
#309 = ORIENTED_EDGE ( 'NONE', *, *, #561, .F. ) ;
#310 = DIRECTION ( 'NONE',  ( 0.000000000000000000, -1.000000000000000000, 0.000000000000000000 ) ) ;
#311 = LINE ( 'NONE', #330, #255 ) ;
#312 = VECTOR ( 'NONE', #278, 39.37007874015748143 ) ;
#313 = EDGE_CURVE ( 'NONE', #373, #993, #812, .T. ) ;
#314 = ORIENTED_EDGE ( 'NONE', *, *, #275, .F. ) ;
#315 = EDGE_CURVE ( 'NONE', #64, #423, #443, .T. ) ;
#316 = PLANE ( 'NONE',  #804 ) ;
#317 = VECTOR ( 'NONE', #762, 39.37007874015748854 ) ;
#318 = ORIENTED_EDGE ( 'NONE', *, *, #54, .T. ) ;
#319 = VECTOR ( 'NONE', #96, 39.37007874015748143 ) ;
#320 = PLANE ( 'NONE',  #495 ) ;
#321 = DIRECTION ( 'NONE',  ( -0.000000000000000000, 1.000000000000000000, 0.000000000000000000 ) ) ;
#322 = DIRECTION ( 'NONE',  ( 0.8164965809277385800, 0.5773502691896079675, -2.307555223660335941E-15 ) ) ;
#323 = DIRECTION ( 'NONE',  ( 0.7071067811865473507, 0.000000000000000000, -0.7071067811865476838 ) ) ;
#324 = UNCERTAINTY_MEASURE_WITH_UNIT (LENGTH_MEASURE( 1.000000000000000082E-05 ), #133, 'distance_accuracy_value', 'NONE');
#325 = FACE_OUTER_BOUND ( 'NONE', #1, .T. ) ;
#326 = CARTESIAN_POINT ( 'NONE',  ( 0.04166666666666671986, 0.3083333333333330151, 2.646981876640420062 ) ) ;
#327 = PLANE ( 'NONE',  #865 ) ;
#328 = CARTESIAN_POINT ( 'NONE',  ( 0.000000000000000000, 0.3333333333333341475, -2.813648543307086580 ) ) ;
#329 = LINE ( 'NONE', #503, #366 ) ;
#330 = CARTESIAN_POINT ( 'NONE',  ( 0.1666666666666668795, 0.2494077682344535696, -2.688648543307087024 ) ) ;
#331 = DIRECTION ( 'NONE',  ( 0.7071067811865466846, 0.000000000000000000, 0.7071067811865483499 ) ) ;
#332 = DIRECTION ( 'NONE',  ( 0.000000000000000000, 0.000000000000000000, 1.000000000000000000 ) ) ;
#333 = AXIS2_PLACEMENT_3D ( 'NONE', #817, #28, #175 ) ;
#334 = DIRECTION ( 'NONE',  ( 0.8164965809277280329, -0.5773502691896228445, 2.435752736085860418E-15 ) ) ;
#335 = ORIENTED_EDGE ( 'NONE', *, *, #128, .T. ) ;
#336 = VECTOR ( 'NONE', #636, 39.37007874015748143 ) ;
#337 = PLANE ( 'NONE',  #732 ) ;
#338 = DIRECTION ( 'NONE',  ( 0.5000000000000023315, -0.7071067811865444641, 0.5000000000000021094 ) ) ;
#339 = EDGE_CURVE ( 'NONE', #204, #686, #741, .T. ) ;
#340 = EDGE_CURVE ( 'NONE', #377, #929, #284, .T. ) ;
#341 = EDGE_CURVE ( 'NONE', #682, #925, #757, .T. ) ;
#342 = LINE ( 'NONE', #181, #59 ) ;
#343 = VERTEX_POINT ( 'NONE', #894 ) ;
#344 = DIRECTION ( 'NONE',  ( 1.000000000000000000, -0.000000000000000000, 0.000000000000000000 ) ) ;
#345 = CARTESIAN_POINT ( 'NONE',  ( 0.3333333333333333148, 2.219626494852213988E-16, 2.480315209973753099 ) ) ;
#346 = ORIENTED_EDGE ( 'NONE', *, *, #498, .F. ) ;
#347 = CARTESIAN_POINT ( 'NONE',  ( 0.3333333333333333148, -0.3333333333333330928, 2.813648543307086580 ) ) ;
#348 = EDGE_CURVE ( 'NONE', #196, #520, #901, .T. ) ;
#349 = EDGE_CURVE ( 'NONE', #103, #470, #434, .T. ) ;
#350 = VECTOR ( 'NONE', #794, 39.37007874015748143 ) ;
#351 = LINE ( 'NONE', #521, #312 ) ;
#352 = ORIENTED_EDGE ( 'NONE', *, *, #921, .F. ) ;
#353 = LINE ( 'NONE', #263, #223 ) ;
#354 = VECTOR ( 'NONE', #14, 39.37007874015748143 ) ;
#355 = DIRECTION ( 'NONE',  ( -1.000000000000000000, -0.000000000000000000, -0.000000000000000000 ) ) ;
#356 = PRESENTATION_STYLE_ASSIGNMENT (( #972 ) ) ;
#357 = ORIENTED_EDGE ( 'NONE', *, *, #201, .T. ) ;
#358 = CARTESIAN_POINT ( 'NONE',  ( 0.3333333333333333148, 0.3333333333333341475, -2.480315209973753099 ) ) ;
#359 = CARTESIAN_POINT ( 'NONE',  ( 0.2563113276073392122, 0.1333333333333334147, -2.646981876640420062 ) ) ;
#360 = EDGE_LOOP ( 'NONE', ( #749, #346, #955, #979 ) ) ;
#361 = CARTESIAN_POINT ( 'NONE',  ( 0.04166666666666671986, 0.1333333333333334147, 2.646981876640420062 ) ) ;
#362 = ORIENTED_EDGE ( 'NONE', *, *, #437, .F. ) ;
#363 = MANIFOLD_SOLID_BREP ( 'Chamfer1', #430 ) ;
#364 = DIRECTION ( 'NONE',  ( -0.7071067811865471286, 0.000000000000000000, -0.7071067811865479058 ) ) ;
#365 = ORIENTED_EDGE ( 'NONE', *, *, #971, .F. ) ;
#366 = VECTOR ( 'NONE', #640, 39.37007874015748143 ) ;
#367 = VECTOR ( 'NONE', #124, 39.37007874015748143 ) ;
#368 = DIRECTION ( 'NONE',  ( 0.7071067811865472397, 0.000000000000000000, -0.7071067811865479058 ) ) ;
#369 = AXIS2_PLACEMENT_3D ( 'NONE', #197, #900, #504 ) ;
#370 = VERTEX_POINT ( 'NONE', #668 ) ;
#371 = ORIENTED_EDGE ( 'NONE', *, *, #825, .F. ) ;
#372 = CARTESIAN_POINT ( 'NONE',  ( -1.195335274516540425, 0.1333333333333334147, -1.195335274516540869 ) ) ;
#373 = VERTEX_POINT ( 'NONE', #681 ) ;
#374 = CARTESIAN_POINT ( 'NONE',  ( 0.08648899713700297642, 0.3333333333333334259, 2.727159546170083715 ) ) ;
#375 = ORIENTED_EDGE ( 'NONE', *, *, #846, .F. ) ;
#376 = DIRECTION ( 'NONE',  ( -1.000000000000000000, -0.000000000000000000, -0.000000000000000000 ) ) ;
#377 = VERTEX_POINT ( 'NONE', #359 ) ;
#378 = ORIENTED_EDGE ( 'NONE', *, *, #54, .F. ) ;
#379 = CARTESIAN_POINT ( 'NONE',  ( 0.3333333333333333148, 0.3333333333333334259, 2.480315209973753099 ) ) ;
#380 = EDGE_CURVE ( 'NONE', #377, #920, #983, .T. ) ;
#381 = EDGE_CURVE ( 'NONE', #672, #533, #216, .T. ) ;
#382 = VECTOR ( 'NONE', #119, 39.37007874015748854 ) ;
#383 = CARTESIAN_POINT ( 'NONE',  ( -1.284979935457212674, 0.1333333333333334147, -1.284979935457211564 ) ) ;
#384 = ORIENTED_EDGE ( 'NONE', *, *, #259, .F. ) ;
#385 = EDGE_CURVE ( 'NONE', #370, #148, #141, .T. ) ;
#386 = VECTOR ( 'NONE', #604, 39.37007874015748143 ) ;
#387 = ORIENTED_EDGE ( 'NONE', *, *, #55, .F. ) ;
#388 = DIRECTION ( 'NONE',  ( 0.000000000000000000, -0.000000000000000000, 1.000000000000000000 ) ) ;
#389 = PLANE ( 'NONE',  #563 ) ;
#390 = FACE_OUTER_BOUND ( 'NONE', #703, .T. ) ;
#391 = ORIENTED_EDGE ( 'NONE', *, *, #313, .T. ) ;
#392 = DIRECTION ( 'NONE',  ( -0.7071067811865472397, 0.000000000000000000, 0.7071067811865479058 ) ) ;
#393 = EDGE_CURVE ( 'NONE', #83, #966, #69, .T. ) ;
#394 = LINE ( 'NONE', #238, #592 ) ;
#395 = ORIENTED_EDGE ( 'NONE', *, *, #381, .T. ) ;
#396 = DIRECTION ( 'NONE',  ( -2.563950248511455400E-16, -0.5773502691896088557, -0.8164965809277378028 ) ) ;
#397 = EDGE_LOOP ( 'NONE', ( #458, #696, #459, #589 ) ) ;
#398 = DIRECTION ( 'NONE',  ( -0.7071067811865472397, 0.000000000000000000, 0.7071067811865479058 ) ) ;
#399 = AXIS2_PLACEMENT_3D ( 'NONE', #24, #888, #491 ) ;
#400 = ORIENTED_EDGE ( 'NONE', *, *, #564, .F. ) ;
#401 = CARTESIAN_POINT ( 'NONE',  ( 0.2468443361963301996, 0.3333333333333334259, 2.566804207110755964 ) ) ;
#402 = PRODUCT ( 'feet', 'feet', '', ( #892 ) ) ;
#403 = VECTOR ( 'NONE', #974, 39.37007874015748143 ) ;
#404 = CARTESIAN_POINT ( 'NONE',  ( 0.000000000000000000, 0.1333333333333334147, 0.000000000000000000 ) ) ;
#405 = DIRECTION ( 'NONE',  ( 2.884444029575337589E-16, 0.5773502691896279515, -0.8164965809277244801 ) ) ;
#406 = DIRECTION ( 'NONE',  ( 0.000000000000000000, 1.000000000000000000, 0.000000000000000000 ) ) ;
#407 = LINE ( 'NONE', #328, #354 ) ;
#408 = FACE_OUTER_BOUND ( 'NONE', #651, .T. ) ;
#409 = CARTESIAN_POINT ( 'NONE',  ( 0.1666666666666638819, -0.5509794374988026266, -1.768862136165159971 ) ) ;
#410 = FACE_OUTER_BOUND ( 'NONE', #841, .T. ) ;
#411 = FACE_OUTER_BOUND ( 'NONE', #550, .T. ) ;
#412 = DIRECTION ( 'NONE',  ( -0.4999999999999902855, -0.7071067811865611175, -0.4999999999999905631 ) ) ;
#413 = ORIENTED_EDGE ( 'NONE', *, *, #201, .F. ) ;
#414 = DIRECTION ( 'NONE',  ( 0.000000000000000000, 0.000000000000000000, 1.000000000000000000 ) ) ;
#415 = ADVANCED_FACE ( 'NONE', ( #203 ), #509, .F. ) ;
#416 = CARTESIAN_POINT ( 'NONE',  ( 0.1666666666666666574, 0.1583333333333339643, 2.771981876640420062 ) ) ;
#417 = AXIS2_PLACEMENT_3D ( 'NONE', #306, #74, #17 ) ;
#418 = PLANE ( 'NONE',  #190 ) ;
#419 = ORIENTED_EDGE ( 'NONE', *, *, #958, .T. ) ;
#420 = VECTOR ( 'NONE', #189, 39.37007874015748143 ) ;
#421 = DIRECTION ( 'NONE',  ( -1.000000000000000000, -0.000000000000000000, -0.000000000000000000 ) ) ;
#422 = DIRECTION ( 'NONE',  ( -0.7071067811865476838, 0.000000000000000000, 0.7071067811865473507 ) ) ;
#423 = VERTEX_POINT ( 'NONE', #105 ) ;
#424 = APPLICATION_PROTOCOL_DEFINITION ( 'draft international standard', 'automotive_design', 1998, #557 ) ;
#425 = EDGE_CURVE ( 'NONE', #920, #249, #240, .T. ) ;
#426 = DIRECTION ( 'NONE',  ( -0.000000000000000000, 1.000000000000000000, -0.000000000000000000 ) ) ;
#427 = LINE ( 'NONE', #485, #962 ) ;
#428 = ORIENTED_EDGE ( 'NONE', *, *, #315, .T. ) ;
#429 = PLANE ( 'NONE',  #693 ) ;
#430 = CLOSED_SHELL ( 'NONE', ( #26, #988, #172, #101, #230, #730, #151, #286, #700, #597, #490, #810, #517, #980, #126, #95, #842, #415, #679, #843, #782, #587, #783, #136, #452, #949, #639, #202, #188, #162, #10, #701, #633, #616, #678, #302 ) ) ;
#431 = CARTESIAN_POINT ( 'NONE',  ( 0.04166666666666718477, 0.3083333333333326265, -2.646981876640420062 ) ) ;
#432 = ORIENTED_EDGE ( 'NONE', *, *, #273, .T. ) ;
#433 = LINE ( 'NONE', #347, #716 ) ;
#434 = LINE ( 'NONE', #599, #756 ) ;
#435 = VERTEX_POINT ( 'NONE', #551 ) ;
#436 = LINE ( 'NONE', #383, #608 ) ;
#437 = EDGE_CURVE ( 'NONE', #686, #48, #407, .T. ) ;
#438 = ORIENTED_EDGE ( 'NONE', *, *, #875, .T. ) ;
#439 = CARTESIAN_POINT ( 'NONE',  ( 0.000000000000000000, -0.3333333333333341475, -2.813648543307086580 ) ) ;
#440 = ORIENTED_EDGE ( 'NONE', *, *, #241, .T. ) ;
#441 = CARTESIAN_POINT ( 'NONE',  ( 0.2083333333333338144, 0.2494077682344536251, -2.646981876640420062 ) ) ;
#442 = EDGE_LOOP ( 'NONE', ( #139, #747, #432, #913 ) ) ;
#443 = LINE ( 'NONE', #581, #476 ) ;
#444 = ORIENTED_EDGE ( 'NONE', *, *, #745, .T. ) ;
#445 = AXIS2_PLACEMENT_3D ( 'NONE', #30, #945, #791 ) ;
#446 = CARTESIAN_POINT ( 'NONE',  ( 0.3333333333333333148, 2.219626494852213988E-16, 2.480315209973753099 ) ) ;
#447 = AXIS2_PLACEMENT_3D ( 'NONE', #946, #321, #793 ) ;
#448 = ORIENTED_EDGE ( 'NONE', *, *, #498, .T. ) ;
#449 = DIRECTION ( 'NONE',  ( 0.8164965809277289210, 0.5773502691896216232, -4.042227813668808870E-15 ) ) ;
#450 = VERTEX_POINT ( 'NONE', #939 ) ;
#451 = LINE ( 'NONE', #981, #590 ) ;
#452 = ADVANCED_FACE ( 'NONE', ( #20 ), #685, .F. ) ;
#453 = ORIENTED_EDGE ( 'NONE', *, *, #303, .F. ) ;
#454 = ORIENTED_EDGE ( 'NONE', *, *, #516, .F. ) ;
#455 = CARTESIAN_POINT ( 'NONE',  ( 0.1666666666666669627, 0.1583333333333333259, -2.771981876640420062 ) ) ;
#456 = DIRECTION ( 'NONE',  ( -0.5000000000000021094, -0.7071067811865451302, -0.5000000000000015543 ) ) ;
#457 = EDGE_CURVE ( 'NONE', #245, #435, #164, .T. ) ;
#458 = ORIENTED_EDGE ( 'NONE', *, *, #340, .T. ) ;
#459 = ORIENTED_EDGE ( 'NONE', *, *, #303, .T. ) ;
#460 = ADVANCED_BREP_SHAPE_REPRESENTATION ( 'feet', ( #363, #695 ), #950 ) ;
#461 = PLANE ( 'NONE',  #109 ) ;
#462 = ORIENTED_EDGE ( 'NONE', *, *, #341, .T. ) ;
#463 = VECTOR ( 'NONE', #927, 39.37007874015748143 ) ;
#464 = ORIENTED_EDGE ( 'NONE', *, *, #275, .T. ) ;
#465 = CARTESIAN_POINT ( 'NONE',  ( 0.1666666666666669627, 0.1583333333333333259, -2.771981876640420062 ) ) ;
#466 = LINE ( 'NONE', #409, #774 ) ;
#467 = DIRECTION ( 'NONE',  ( -0.7071067811865476838, 0.000000000000000000, 0.7071067811865473507 ) ) ;
#468 = LINE ( 'NONE', #860, #531 ) ;
#469 = EDGE_CURVE ( 'NONE', #682, #470, #180, .T. ) ;
#470 = VERTEX_POINT ( 'NONE', #23 ) ;
#471 = CARTESIAN_POINT ( 'NONE',  ( 0.3333333333333333148, -0.3333333333333341475, -2.813648543307086580 ) ) ;
#472 = FACE_OUTER_BOUND ( 'NONE', #397, .T. ) ;
#473 = ORIENTED_EDGE ( 'NONE', *, *, #669, .T. ) ;
#474 = DIRECTION ( 'NONE',  ( -0.7071067811865473507, 0.000000000000000000, -0.7071067811865476838 ) ) ;
#475 = DIRECTION ( 'NONE',  ( -0.4999999999999975575, -0.7071067811865513475, -0.4999999999999970579 ) ) ;
#476 = VECTOR ( 'NONE', #968, 39.37007874015748143 ) ;
#477 = CARTESIAN_POINT ( 'NONE',  ( 0.3333333333333333148, 0.3333333333333341475, -2.480315209973753099 ) ) ;
#478 = LINE ( 'NONE', #789, #992 ) ;
#479 = LINE ( 'NONE', #100, #270 ) ;
#480 = VECTOR ( 'NONE', #790, 39.37007874015748143 ) ;
#481 = DIRECTION ( 'NONE',  ( 0.000000000000000000, -0.000000000000000000, -1.000000000000000000 ) ) ;
#482 = DIRECTION ( 'NONE',  ( -0.7071067811865473507, 0.000000000000000000, 0.7071067811865476838 ) ) ;
#483 = DIRECTION ( 'NONE',  ( 0.7071067811865473507, 0.000000000000000000, -0.7071067811865476838 ) ) ;
#484 = LINE ( 'NONE', #87, #511 ) ;
#485 = CARTESIAN_POINT ( 'NONE',  ( 0.1666666666666708485, 0.6968197856014147762, 1.760447032688694735 ) ) ;
#486 = EDGE_CURVE ( 'NONE', #343, #680, #468, .T. ) ;
#488 = VERTEX_POINT ( 'NONE', #795 ) ;
#487 = EDGE_CURVE ( 'NONE', #694, #370, #780, .T. ) ;
#489 = DIRECTION ( 'NONE',  ( -0.7071067811865473507, 0.000000000000000000, 0.7071067811865476838 ) ) ;
#490 = ADVANCED_FACE ( 'NONE', ( #632 ), #316, .F. ) ;
#491 = DIRECTION ( 'NONE',  ( 0.000000000000000000, 1.239088072561881342E-16, -1.000000000000000000 ) ) ;
#492 = EDGE_LOOP ( 'NONE', ( #444, #973, #352, #931 ) ) ;
#493 = CARTESIAN_POINT ( 'NONE',  ( 0.1666666666666666574, 0.1333333333333334147, 2.771981876640420062 ) ) ;
#494 = LINE ( 'NONE', #264, #546 ) ;
#495 = AXIS2_PLACEMENT_3D ( 'NONE', #404, #691, #388 ) ;
#496 = FACE_OUTER_BOUND ( 'NONE', #600, .T. ) ;
#497 = EDGE_CURVE ( 'NONE', #165, #809, #944, .T. ) ;
#498 = EDGE_CURVE ( 'NONE', #733, #680, #869, .T. ) ;
#499 = ORIENTED_EDGE ( 'NONE', *, *, #904, .T. ) ;
#500 = AXIS2_PLACEMENT_3D ( 'NONE', #200, #583, #507 ) ;
#501 = CARTESIAN_POINT ( 'NONE',  ( 0.3333333333333333148, 8.366284480596805737E-16, -2.480315209973753099 ) ) ;
#502 = PLANE ( 'NONE',  #903 ) ;
#503 = CARTESIAN_POINT ( 'NONE',  ( -1.195335274516541535, 0.1333333333333334147, 1.195335274516540869 ) ) ;
#504 = DIRECTION ( 'NONE',  ( 0.7071067811865476838, 0.000000000000000000, -0.7071067811865473507 ) ) ;
#505 = ORIENTED_EDGE ( 'NONE', *, *, #814, .F. ) ;
#506 = PLANE ( 'NONE',  #123 ) ;
#507 = DIRECTION ( 'NONE',  ( 0.7071067811865476838, 0.000000000000000000, 0.7071067811865473507 ) ) ;
#508 = VECTOR ( 'NONE', #2, 39.37007874015748143 ) ;
#509 = PLANE ( 'NONE',  #333 ) ;
#510 = VERTEX_POINT ( 'NONE', #914 ) ;
#511 = VECTOR ( 'NONE', #396, 39.37007874015748854 ) ;
#512 = CARTESIAN_POINT ( 'NONE',  ( 0.1666666666666667962, 0.1583333333333332149, -2.521981876640420062 ) ) ;
#513 = VECTOR ( 'NONE', #625, 39.37007874015748143 ) ;
#514 = ORIENTED_EDGE ( 'NONE', *, *, #855, .T. ) ;
#515 = ORIENTED_EDGE ( 'NONE', *, *, #598, .F. ) ;
#516 = EDGE_CURVE ( 'NONE', #694, #64, #484, .T. ) ;
#517 = ADVANCED_FACE ( 'NONE', ( #411 ), #169, .F. ) ;
#518 = EDGE_CURVE ( 'NONE', #83, #522, #479, .T. ) ;
#519 = DIRECTION ( 'NONE',  ( 0.7071067811865472397, 0.000000000000000000, -0.7071067811865479058 ) ) ;
#520 = VERTEX_POINT ( 'NONE', #256 ) ;
#521 = CARTESIAN_POINT ( 'NONE',  ( -1.284979935457212008, 0.1333333333333334147, 1.284979935457212674 ) ) ;
#522 = VERTEX_POINT ( 'NONE', #565 ) ;
#523 = DIRECTION ( 'NONE',  ( 0.7071067811865473507, 0.000000000000000000, 0.7071067811865476838 ) ) ;
#524 = ORIENTED_EDGE ( 'NONE', *, *, #855, .F. ) ;
#525 = CARTESIAN_POINT ( 'NONE',  ( 0.000000000000000000, 2.219626494852213988E-16, 2.480315209973753099 ) ) ;
#526 = ORIENTED_EDGE ( 'NONE', *, *, #928, .T. ) ;
#527 = AXIS2_PLACEMENT_3D ( 'NONE', #191, #805, #422 ) ;
#528 = EDGE_CURVE ( 'NONE', #226, #694, #873, .T. ) ;
#529 = EDGE_CURVE ( 'NONE', #132, #196, #799, .T. ) ;
#530 = LINE ( 'NONE', #905, #79 ) ;
#531 = VECTOR ( 'NONE', #246, 39.37007874015748143 ) ;
#532 = ORIENTED_EDGE ( 'NONE', *, *, #380, .F. ) ;
#533 = VERTEX_POINT ( 'NONE', #235 ) ;
#534 = CARTESIAN_POINT ( 'NONE',  ( 0.3333333333333333148, 0.000000000000000000, 0.000000000000000000 ) ) ;
#535 = ORIENTED_EDGE ( 'NONE', *, *, #890, .T. ) ;
#536 = ORIENTED_EDGE ( 'NONE', *, *, #55, .T. ) ;
#537 = DIRECTION ( 'NONE',  ( 0.7071067811865476838, 0.000000000000000000, -0.7071067811865473507 ) ) ;
#538 = FACE_OUTER_BOUND ( 'NONE', #182, .T. ) ;
#539 = VERTEX_POINT ( 'NONE', #545 ) ;
#540 = DIRECTION ( 'NONE',  ( -0.7071067811865471286, 0.000000000000000000, -0.7071067811865479058 ) ) ;
#541 = VECTOR ( 'NONE', #954, 39.37007874015748143 ) ;
#542 = PRODUCT_RELATED_PRODUCT_CATEGORY ( 'part', '', ( #402 ) ) ;
#543 = LINE ( 'NONE', #477, #610 ) ;
#544 = EDGE_LOOP ( 'NONE', ( #130, #777, #217, #279 ) ) ;
#545 = CARTESIAN_POINT ( 'NONE',  ( 0.04166666666666718477, 0.1583333333333332149, -2.646981876640420062 ) ) ;
#546 = VECTOR ( 'NONE', #963, 39.37007874015748143 ) ;
#547 = ORIENTED_EDGE ( 'NONE', *, *, #714, .F. ) ;
#548 = FACE_BOUND ( 'NONE', #31, .T. ) ;
#549 = LINE ( 'NONE', #326, #513 ) ;
#550 = EDGE_LOOP ( 'NONE', ( #644, #924, #758, #155 ) ) ;
#551 = CARTESIAN_POINT ( 'NONE',  ( 0.3333333333333333148, 0.3333333333333341475, -2.480315209973753099 ) ) ;
#552 = LINE ( 'NONE', #622, #508 ) ;
#553 = LINE ( 'NONE', #788, #776 ) ;
#554 = FACE_OUTER_BOUND ( 'NONE', #596, .T. ) ;
#555 = CARTESIAN_POINT ( 'NONE',  ( 0.3333333333333333148, 0.3333333333333341475, -2.813648543307086580 ) ) ;
#556 = FACE_OUTER_BOUND ( 'NONE', #8, .T. ) ;
#557 = APPLICATION_CONTEXT ( 'automotive_design' ) ;
#558 = LINE ( 'NONE', #21, #463 ) ;
#559 = ORIENTED_EDGE ( 'NONE', *, *, #67, .T. ) ;
#560 = CARTESIAN_POINT ( 'NONE',  ( 0.3333333333333333148, 0.3333333333333334259, 2.480315209973753099 ) ) ;
#561 = EDGE_CURVE ( 'NONE', #920, #682, #91, .T. ) ;
#562 = CARTESIAN_POINT ( 'NONE',  ( 0.2916666666666665186, 0.1583333333333337423, 2.646981876640420062 ) ) ;
#563 = AXIS2_PLACEMENT_3D ( 'NONE', #630, #233, #862 ) ;
#564 = EDGE_CURVE ( 'NONE', #226, #343, #953, .T. ) ;
#565 = CARTESIAN_POINT ( 'NONE',  ( 0.1666666666666666574, 0.3083333333333330151, 2.771981876640420062 ) ) ;
#566 = PLANE ( 'NONE',  #399 ) ;
#567 = ORIENTED_EDGE ( 'NONE', *, *, #921, .T. ) ;
#568 = DIRECTION ( 'NONE',  ( 1.000000000000000000, 0.000000000000000000, -0.000000000000000000 ) ) ;
#569 = DIRECTION ( 'NONE',  ( -0.7071067811865473507, 0.000000000000000000, -0.7071067811865476838 ) ) ;
#570 = EDGE_CURVE ( 'NONE', #488, #733, #33, .T. ) ;
#571 = DIRECTION ( 'NONE',  ( -1.000000000000000000, 0.000000000000000000, -0.000000000000000000 ) ) ;
#572 = ORIENTED_EDGE ( 'NONE', *, *, #348, .F. ) ;
#573 = DIRECTION ( 'NONE',  ( 0.7071067811865476838, 0.000000000000000000, -0.7071067811865473507 ) ) ;
#574 = FACE_OUTER_BOUND ( 'NONE', #360, .T. ) ;
#575 = VECTOR ( 'NONE', #322, 39.37007874015748854 ) ;
#576 = CARTESIAN_POINT ( 'NONE',  ( 1.362001941183207609, 0.1333333333333334147, -1.362001941183204279 ) ) ;
#577 = ORIENTED_EDGE ( 'NONE', *, *, #135, .F. ) ;
#578 = AXIS2_PLACEMENT_3D ( 'NONE', #271, #580, #665 ) ;
#579 = VECTOR ( 'NONE', #934, 39.37007874015748143 ) ;
#580 = DIRECTION ( 'NONE',  ( -0.5000000000000047740, -0.7071067811865406894, 0.5000000000000049960 ) ) ;
#581 = CARTESIAN_POINT ( 'NONE',  ( 1.451646602123878527, 0.1333333333333334147, 1.451646602123877861 ) ) ;
#582 = ORIENTED_EDGE ( 'NONE', *, *, #497, .T. ) ;
#583 = DIRECTION ( 'NONE',  ( -0.4999999999999890088, -0.7071067811865628938, 0.4999999999999892863 ) ) ;
#584 = DIRECTION ( 'NONE',  ( 0.000000000000000000, 1.000000000000000000, 0.000000000000000000 ) ) ;
#585 = ORIENTED_EDGE ( 'NONE', *, *, #518, .T. ) ;
#586 = CARTESIAN_POINT ( 'NONE',  ( 0.1666666666666667962, 0.3083333333333326265, -2.521981876640420062 ) ) ;
#587 = ADVANCED_FACE ( 'NONE', ( #897 ), #502, .F. ) ;
#588 = DIRECTION ( 'NONE',  ( 0.000000000000000000, 1.000000000000000000, 0.000000000000000000 ) ) ;
#589 = ORIENTED_EDGE ( 'NONE', *, *, #971, .T. ) ;
#590 = VECTOR ( 'NONE', #368, 39.37007874015748143 ) ;
#591 = DIRECTION ( 'NONE',  ( -0.7071067811865472397, 0.000000000000000000, 0.7071067811865479058 ) ) ;
#592 = VECTOR ( 'NONE', #117, 39.37007874015748143 ) ;
#593 = ORIENTED_EDGE ( 'NONE', *, *, #380, .T. ) ;
#594 = EDGE_LOOP ( 'NONE', ( #765, #68, #464, #769 ) ) ;
#595 = CARTESIAN_POINT ( 'NONE',  ( 0.1666666666666666574, 0.1583333333333338810, 2.521981876640420062 ) ) ;
#596 = EDGE_LOOP ( 'NONE', ( #419, #413, #228, #304 ) ) ;
#597 = ADVANCED_FACE ( 'NONE', ( #803 ), #118, .F. ) ;
#598 = EDGE_CURVE ( 'NONE', #370, #719, #494, .T. ) ;
#599 = CARTESIAN_POINT ( 'NONE',  ( 0.1666666666666672125, 0.2494077682344539859, -2.605315209973753099 ) ) ;
#600 = EDGE_LOOP ( 'NONE', ( #145, #661, #73, #13 ) ) ;
#601 = DIRECTION ( 'NONE',  ( 0.8164965809277244801, 0.5773502691896280625, 5.728826336517683496E-16 ) ) ;
#602 = ORIENTED_EDGE ( 'NONE', *, *, #875, .F. ) ;
#603 = VECTOR ( 'NONE', #111, 39.37007874015748854 ) ;
#604 = DIRECTION ( 'NONE',  ( -0.000000000000000000, 1.000000000000000000, -0.000000000000000000 ) ) ;
#605 = ORIENTED_EDGE ( 'NONE', *, *, #889, .T. ) ;
#606 = MECHANICAL_DESIGN_GEOMETRIC_PRESENTATION_REPRESENTATION (  '', ( #154 ), #294 ) ;
#607 = DIRECTION ( 'NONE',  ( -0.7071067811865476838, 0.000000000000000000, 0.7071067811865473507 ) ) ;
#608 = VECTOR ( 'NONE', #985, 39.37007874015748143 ) ;
#609 = VERTEX_POINT ( 'NONE', #811 ) ;
#610 = VECTOR ( 'NONE', #93, 39.37007874015748143 ) ;
#611 = ORIENTED_EDGE ( 'NONE', *, *, #231, .T. ) ;
#612 = DIRECTION ( 'NONE',  ( -0.000000000000000000, 1.000000000000000000, -0.000000000000000000 ) ) ;
#613 = LINE ( 'NONE', #908, #140 ) ;
#614 = ORIENTED_EDGE ( 'NONE', *, *, #82, .F. ) ;
#615 = EDGE_LOOP ( 'NONE', ( #454, #72, #378, #935 ) ) ;
#616 = ADVANCED_FACE ( 'NONE', ( #574 ), #110, .F. ) ;
#617 = PLANE ( 'NONE',  #76 ) ;
#618 = CARTESIAN_POINT ( 'NONE',  ( 0.000000000000000000, 0.3333333333333334259, 2.480315209973753099 ) ) ;
#619 = CARTESIAN_POINT ( 'NONE',  ( 0.04166666666666718477, 0.3083333333333326265, -2.646981876640420062 ) ) ;
#620 = ORIENTED_EDGE ( 'NONE', *, *, #273, .F. ) ;
#621 = EDGE_CURVE ( 'NONE', #435, #48, #885, .T. ) ;
#622 = CARTESIAN_POINT ( 'NONE',  ( 0.3333333333333333148, 0.3333333333333334259, 2.480315209973753099 ) ) ;
#623 = VECTOR ( 'NONE', #334, 39.37007874015748143 ) ;
#624 = VECTOR ( 'NONE', #364, 39.37007874015748143 ) ;
#625 = DIRECTION ( 'NONE',  ( 0.7071067811865476838, 0.000000000000000000, 0.7071067811865473507 ) ) ;
#626 = CARTESIAN_POINT ( 'NONE',  ( 0.000000000000000000, 0.3333333333333341475, -2.480315209973753099 ) ) ;
#627 = CARTESIAN_POINT ( 'NONE',  ( 0.04166666666666671986, 0.1333333333333334147, 2.646981876640420062 ) ) ;
#628 = AXIS2_PLACEMENT_3D ( 'NONE', #290, #4, #300 ) ;
#629 = UNCERTAINTY_MEASURE_WITH_UNIT (LENGTH_MEASURE( 1.000000000000000082E-05 ), #878, 'distance_accuracy_value', 'NONE');
#630 = CARTESIAN_POINT ( 'NONE',  ( -1.195335274516541535, 0.1333333333333334147, 1.195335274516540869 ) ) ;
#631 = DIRECTION ( 'NONE',  ( 0.000000000000000000, 1.820488561126394754E-16, 1.000000000000000000 ) ) ;
#632 = FACE_OUTER_BOUND ( 'NONE', #899, .T. ) ;
#633 = ADVANCED_FACE ( 'NONE', ( #121 ), #429, .F. ) ;
#634 = CARTESIAN_POINT ( 'NONE',  ( 0.1666666666666666574, 0.1333333333333334147, 2.771981876640420062 ) ) ;
#635 = PRODUCT_DEFINITION_SHAPE ( 'NONE', 'NONE',  #798 ) ;
#636 = DIRECTION ( 'NONE',  ( -0.7071067811865473507, 0.000000000000000000, -0.7071067811865476838 ) ) ;
#637 = DIRECTION ( 'NONE',  ( 0.000000000000000000, 1.000000000000000000, -1.820488561126394754E-16 ) ) ;
#638 = DIRECTION ( 'NONE',  ( -0.000000000000000000, 1.000000000000000000, -0.000000000000000000 ) ) ;
#639 = ADVANCED_FACE ( 'NONE', ( #740 ), #45, .F. ) ;
#640 = DIRECTION ( 'NONE',  ( -0.7071067811865473507, 0.000000000000000000, -0.7071067811865476838 ) ) ;
#641 = AXIS2_PLACEMENT_3D ( 'NONE', #847, #27, #331 ) ;
#642 = DIRECTION ( 'NONE',  ( 0.000000000000000000, 0.000000000000000000, 1.000000000000000000 ) ) ;
#643 = PRESENTATION_LAYER_ASSIGNMENT (  '', '', ( #154 ) ) ;
#644 = ORIENTED_EDGE ( 'NONE', *, *, #889, .F. ) ;
#645 = DIRECTION ( 'NONE',  ( -0.7071067811865473507, 0.000000000000000000, 0.7071067811865476838 ) ) ;
#646 = AXIS2_PLACEMENT_3D ( 'NONE', #649, #737, #569 ) ;
#647 = LINE ( 'NONE', #185, #603 ) ;
#648 = PRODUCT_DEFINITION_FORMATION_WITH_SPECIFIED_SOURCE ( 'ANY', '', #402, .NOT_KNOWN. ) ;
#649 = CARTESIAN_POINT ( 'NONE',  ( 0.1666666666666666574, 0.3083333333333330151, 2.521981876640420062 ) ) ;
#650 = LINE ( 'NONE', #115, #658 ) ;
#651 = EDGE_LOOP ( 'NONE', ( #153, #670, #684, #856 ) ) ;
#652 = DIRECTION ( 'NONE',  ( 0.7071067811865476838, 0.000000000000000000, -0.7071067811865473507 ) ) ;
#653 = DIRECTION ( 'NONE',  ( -0.7071067811865476838, 0.000000000000000000, 0.7071067811865473507 ) ) ;
#654 = EDGE_LOOP ( 'NONE', ( #318, #371, #384, #961 ) ) ;
#655 = DIRECTION ( 'NONE',  ( -1.000000000000000000, -0.000000000000000000, -0.000000000000000000 ) ) ;
#656 = VECTOR ( 'NONE', #57, 39.37007874015748143 ) ;
#657 = FACE_OUTER_BOUND ( 'NONE', #283, .T. ) ;
#658 = VECTOR ( 'NONE', #951, 39.37007874015748143 ) ;
#659 = COLOUR_RGB ( '',0.7921568627450980005, 0.8196078431372548767, 0.9333333333333333481 ) ;
#660 = CARTESIAN_POINT ( 'NONE',  ( 0.000000000000000000, -0.3333333333333341475, -2.813648543307086580 ) ) ;
#661 = ORIENTED_EDGE ( 'NONE', *, *, #667, .F. ) ;
#662 = DIRECTION ( 'NONE',  ( 0.000000000000000000, 0.000000000000000000, 1.000000000000000000 ) ) ;
#663 = CARTESIAN_POINT ( 'NONE',  ( 0.000000000000000000, 2.219626494852213988E-16, 2.480315209973753099 ) ) ;
#664 =( LENGTH_UNIT ( ) NAMED_UNIT ( * ) SI_UNIT ( $, .METRE. ) );
#665 = DIRECTION ( 'NONE',  ( 0.7071067811865476838, 0.000000000000000000, 0.7071067811865473507 ) ) ;
#666 = EDGE_CURVE ( 'NONE', #609, #5, #433, .T. ) ;
#667 = EDGE_CURVE ( 'NONE', #370, #225, #260, .T. ) ;
#668 = CARTESIAN_POINT ( 'NONE',  ( 0.04166666666666671986, 0.1583333333333339643, 2.646981876640420062 ) ) ;
#669 = EDGE_CURVE ( 'NONE', #470, #249, #815, .T. ) ;
#670 = ORIENTED_EDGE ( 'NONE', *, *, #242, .F. ) ;
#671 = CARTESIAN_POINT ( 'NONE',  ( 0.04166666666666718477, 0.1583333333333332149, -2.646981876640420062 ) ) ;
#672 = VERTEX_POINT ( 'NONE', #663 ) ;
#673 = CARTESIAN_POINT ( 'NONE',  ( 0.1666666666666663521, 0.7753872057332570344, -1.649335921577605557 ) ) ;
#674 = ORIENTED_EDGE ( 'NONE', *, *, #529, .T. ) ;
#675 = VECTOR ( 'NONE', #426, 39.37007874015748143 ) ;
#676 = VECTOR ( 'NONE', #852, 39.37007874015748143 ) ;
#677 = CARTESIAN_POINT ( 'NONE',  ( 0.3333333333333333148, 0.3333333333333334259, 2.813648543307086580 ) ) ;
#678 = ADVANCED_FACE ( 'NONE', ( #657 ), #744, .F. ) ;
#679 = ADVANCED_FACE ( 'NONE', ( #893 ), #277, .F. ) ;
#680 = VERTEX_POINT ( 'NONE', #206 ) ;
#681 = CARTESIAN_POINT ( 'NONE',  ( 0.1666666666666668795, 0.3333333333333341475, -2.807337215699749589 ) ) ;
#682 = VERTEX_POINT ( 'NONE', #512 ) ;
#683 = PLANE ( 'NONE',  #886 ) ;
#684 = ORIENTED_EDGE ( 'NONE', *, *, #745, .F. ) ;
#685 = PLANE ( 'NONE',  #122 ) ;
#686 = VERTEX_POINT ( 'NONE', #820 ) ;
#687 = DIRECTION ( 'NONE',  ( -0.7071067811865476838, 0.000000000000000000, 0.7071067811865473507 ) ) ;
#688 = ORIENTED_EDGE ( 'NONE', *, *, #469, .T. ) ;
#689 = AXIS2_PLACEMENT_3D ( 'NONE', #969, #52, #237 ) ;
#690 = ORIENTED_EDGE ( 'NONE', *, *, #959, .T. ) ;
#691 = DIRECTION ( 'NONE',  ( -0.000000000000000000, 1.000000000000000000, 0.000000000000000000 ) ) ;
#692 = FACE_OUTER_BOUND ( 'NONE', #785, .T. ) ;
#693 = AXIS2_PLACEMENT_3D ( 'NONE', #114, #338, #41 ) ;
#694 = VERTEX_POINT ( 'NONE', #416 ) ;
#695 = AXIS2_PLACEMENT_3D ( 'NONE', #104, #414, #896 ) ;
#696 = ORIENTED_EDGE ( 'NONE', *, *, #712, .T. ) ;
#697 = PLANE ( 'NONE',  #417 ) ;
#698 = LINE ( 'NONE', #173, #676 ) ;
#699 = CARTESIAN_POINT ( 'NONE',  ( -0.7114530738086091155, -0.5509794374987903032, 2.646981876640422726 ) ) ;
#700 = ADVANCED_FACE ( 'NONE', ( #131 ), #683, .T. ) ;
#701 = ADVANCED_FACE ( 'NONE', ( #839 ), #75, .F. ) ;
#702 = EDGE_CURVE ( 'NONE', #16, #672, #138, .T. ) ;
#703 = EDGE_LOOP ( 'NONE', ( #919, #891, #301, #754 ) ) ;
#704 = PLANE ( 'NONE',  #44 ) ;
#705 = DIRECTION ( 'NONE',  ( 2.275505845553892897E-15, 0.5773502691896202910, -0.8164965809277296982 ) ) ;
#706 = PLANE ( 'NONE',  #641 ) ;
#707 = CARTESIAN_POINT ( 'NONE',  ( 0.1666666666666667962, 0.1333333333333334147, -2.521981876640420062 ) ) ;
#708 = ORIENTED_EDGE ( 'NONE', *, *, #305, .T. ) ;
#709 = FACE_OUTER_BOUND ( 'NONE', #442, .T. ) ;
#710 = VECTOR ( 'NONE', #163, 39.37007874015748143 ) ;
#711 = CARTESIAN_POINT ( 'NONE',  ( 0.4135110028629971346, 0.3333333333333334259, 2.560492879503417196 ) ) ;
#712 = EDGE_CURVE ( 'NONE', #929, #510, #436, .T. ) ;
#713 = CARTESIAN_POINT ( 'NONE',  ( 0.3333333333333333148, 2.219626494852213988E-16, 2.480315209973753099 ) ) ;
#714 = EDGE_CURVE ( 'NONE', #222, #5, #530, .T. ) ;
#715 = DIRECTION ( 'NONE',  ( 0.4999999999999892863, -0.7071067811865628938, 0.4999999999999890088 ) ) ;
#716 = VECTOR ( 'NONE', #355, 39.37007874015748143 ) ;
#717 = DIRECTION ( 'NONE',  ( -0.000000000000000000, 1.000000000000000000, -0.000000000000000000 ) ) ;
#718 = DIRECTION ( 'NONE',  ( -0.7071067811865479058, 0.000000000000000000, -0.7071067811865472397 ) ) ;
#719 = VERTEX_POINT ( 'NONE', #760 ) ;
#720 = CARTESIAN_POINT ( 'NONE',  ( 0.04166666666666671986, 0.1583333333333339643, 2.646981876640420062 ) ) ;
#721 = APPLICATION_CONTEXT ( 'automotive_design' ) ;
#722 = LINE ( 'NONE', #345, #541 ) ;
#723 = PLANE ( 'NONE',  #447 ) ;
#724 = CARTESIAN_POINT ( 'NONE',  ( 0.1666666666666666297, 0.1333333333333334147, 2.736626537581090535 ) ) ;
#725 = DIRECTION ( 'NONE',  ( 0.7071067811865473507, 0.000000000000000000, 0.7071067811865476838 ) ) ;
#726 = CARTESIAN_POINT ( 'NONE',  ( 0.2916666666666667407, 0.3083333333333326265, -2.646981876640420062 ) ) ;
#727 = ORIENTED_EDGE ( 'NONE', *, *, #339, .T. ) ;
#728 = AXIS2_PLACEMENT_3D ( 'NONE', #838, #475, #392 ) ;
#729 = CARTESIAN_POINT ( 'NONE',  ( 0.1666666666666662688, 0.2494077682344535696, 2.605315209973753099 ) ) ;
#730 = ADVANCED_FACE ( 'NONE', ( #692 ), #991, .F. ) ;
#731 = CARTESIAN_POINT ( 'NONE',  ( 0.3333333333333333148, 0.3333333333333334259, 2.813648543307086580 ) ) ;
#732 = AXIS2_PLACEMENT_3D ( 'NONE', #493, #797, #956 ) ;
#733 = VERTEX_POINT ( 'NONE', #829 ) ;
#734 = DIRECTION ( 'NONE',  ( 0.4999999999999962252, -0.7071067811865533459, -0.4999999999999956701 ) ) ;
#735 = LINE ( 'NONE', #576, #755 ) ;
#736 = ORIENTED_EDGE ( 'NONE', *, *, #393, .T. ) ;
#737 = DIRECTION ( 'NONE',  ( 0.5000000000000028866, -0.7071067811865437980, -0.5000000000000026645 ) ) ;
#738 = LINE ( 'NONE', #796, #770 ) ;
#739 = EDGE_LOOP ( 'NONE', ( #823, #213, #688, #473 ) ) ;
#740 = FACE_OUTER_BOUND ( 'NONE', #208, .T. ) ;
#741 = LINE ( 'NONE', #439, #268 ) ;
#742 = VECTOR ( 'NONE', #248, 39.37007874015748143 ) ;
#743 = EDGE_CURVE ( 'NONE', #245, #686, #613, .T. ) ;
#744 = PLANE ( 'NONE',  #578 ) ;
#745 = EDGE_CURVE ( 'NONE', #249, #993, #748, .T. ) ;
#746 = CARTESIAN_POINT ( 'NONE',  ( 0.2468443361963315319, 0.3333333333333341475, -2.727159546170084603 ) ) ;
#747 = ORIENTED_EDGE ( 'NONE', *, *, #802, .F. ) ;
#748 = LINE ( 'NONE', #441, #870 ) ;
#749 = ORIENTED_EDGE ( 'NONE', *, *, #486, .T. ) ;
#750 = LENGTH_MEASURE_WITH_UNIT ( LENGTH_MEASURE( 0.02539999999999999897 ), #664 );
#751 = EDGE_LOOP ( 'NONE', ( #830, #938, #674, #78 ) ) ;
#752 = EDGE_CURVE ( 'NONE', #450, #148, #65, .T. ) ;
#753 = FACE_OUTER_BOUND ( 'NONE', #975, .T. ) ;
#754 = ORIENTED_EDGE ( 'NONE', *, *, #205, .F. ) ;
#755 = VECTOR ( 'NONE', #195, 39.37007874015748143 ) ;
#756 = VECTOR ( 'NONE', #47, 39.37007874015748143 ) ;
#757 = LINE ( 'NONE', #673, #382 ) ;
#758 = ORIENTED_EDGE ( 'NONE', *, *, #564, .T. ) ;
#759 = VECTOR ( 'NONE', #642, 39.37007874015748143 ) ;
#760 = CARTESIAN_POINT ( 'NONE',  ( 0.04166666666666671986, 0.3083333333333330151, 2.646981876640420062 ) ) ;
#761 = ORIENTED_EDGE ( 'NONE', *, *, #666, .F. ) ;
#762 = DIRECTION ( 'NONE',  ( 0.8164965809277372477, -0.5773502691896098549, -2.247462639710840232E-15 ) ) ;
#763 = ORIENTED_EDGE ( 'NONE', *, *, #66, .F. ) ;
#764 = DIRECTION ( 'NONE',  ( -0.7071067811865473507, 0.000000000000000000, -0.7071067811865476838 ) ) ;
#765 = ORIENTED_EDGE ( 'NONE', *, *, #570, .T. ) ;
#766 = ORIENTED_EDGE ( 'NONE', *, *, #128, .F. ) ;
#767 = CARTESIAN_POINT ( 'NONE',  ( 0.07702200572599619821, 0.1333333333333334147, 2.646981876640420062 ) ) ;
#768 = DIRECTION ( 'NONE',  ( -1.000000000000000000, -0.000000000000000000, -0.000000000000000000 ) ) ;
#769 = ORIENTED_EDGE ( 'NONE', *, *, #67, .F. ) ;
#770 = VECTOR ( 'NONE', #38, 39.37007874015748143 ) ;
#771 = VERTEX_POINT ( 'NONE', #923 ) ;
#772 = EDGE_CURVE ( 'NONE', #911, #373, #209, .T. ) ;
#773 = LINE ( 'NONE', #942, #742 ) ;
#774 = VECTOR ( 'NONE', #705, 39.37007874015748854 ) ;
#775 = CARTESIAN_POINT ( 'NONE',  ( 0.1666666666666667962, 0.3333333333333334259, 2.807337215699747368 ) ) ;
#776 = VECTOR ( 'NONE', #80, 39.37007874015748143 ) ;
#777 = ORIENTED_EDGE ( 'NONE', *, *, #621, .F. ) ;
#778 = LINE ( 'NONE', #867, #3 ) ;
#779 = LINE ( 'NONE', #86, #218 ) ;
#780 = LINE ( 'NONE', #720, #319 ) ;
#781 = EDGE_LOOP ( 'NONE', ( #440, #220, #708, #428 ) ) ;
#782 = ADVANCED_FACE ( 'NONE', ( #753 ), #214, .F. ) ;
#783 = ADVANCED_FACE ( 'NONE', ( #912 ), #824, .F. ) ;
#784 = FACE_OUTER_BOUND ( 'NONE', #751, .T. ) ;
#785 = EDGE_LOOP ( 'NONE', ( #395, #766, #144, #112 ) ) ;
#786 = CARTESIAN_POINT ( 'NONE',  ( 0.1666666666666669627, 0.1333333333333334147, -2.771981876640420062 ) ) ;
#787 = LINE ( 'NONE', #92, #280 ) ;
#788 = CARTESIAN_POINT ( 'NONE',  ( 0.3333333333333333148, 8.366284480596805737E-16, -2.480315209973753099 ) ) ;
#789 = CARTESIAN_POINT ( 'NONE',  ( 0.04166666666666671986, 0.3083333333333330151, 2.646981876640420062 ) ) ;
#790 = DIRECTION ( 'NONE',  ( -0.000000000000000000, 1.000000000000000000, -0.000000000000000000 ) ) ;
#791 = DIRECTION ( 'NONE',  ( 0.7071067811865476838, 0.000000000000000000, -0.7071067811865473507 ) ) ;
#792 = VECTOR ( 'NONE', #638, 39.37007874015748143 ) ;
#793 = DIRECTION ( 'NONE',  ( 0.000000000000000000, -0.000000000000000000, 1.000000000000000000 ) ) ;
#794 = DIRECTION ( 'NONE',  ( 0.000000000000000000, -1.000000000000000000, 0.000000000000000000 ) ) ;
#795 = CARTESIAN_POINT ( 'NONE',  ( 0.1666666666666666574, 0.3083333333333330151, 2.521981876640420062 ) ) ;
#796 = CARTESIAN_POINT ( 'NONE',  ( 0.3333333333333333148, -0.3333333333333341475, -2.813648543307086580 ) ) ;
#797 = DIRECTION ( 'NONE',  ( 0.7071067811865476838, 0.000000000000000000, 0.7071067811865473507 ) ) ;
#798 = PRODUCT_DEFINITION ( 'UNKNOWN', '', #648, #940 ) ;
#799 = LINE ( 'NONE', #786, #386 ) ;
#800 = DIRECTION ( 'NONE',  ( 4.711258581639799069E-15, 0.5773502691896089667, -0.8164965809277378028 ) ) ;
#801 = ORIENTED_EDGE ( 'NONE', *, *, #528, .T. ) ;
#802 = EDGE_CURVE ( 'NONE', #539, #132, #451, .T. ) ;
#803 = FACE_OUTER_BOUND ( 'NONE', #90, .T. ) ;
#804 = AXIS2_PLACEMENT_3D ( 'NONE', #627, #645, #864 ) ;
#805 = DIRECTION ( 'NONE',  ( -0.5000000000000046629, -0.7071067811865408004, -0.5000000000000048850 ) ) ;
#806 = ORIENTED_EDGE ( 'NONE', *, *, #987, .T. ) ;
#807 = DIRECTION ( 'NONE',  ( -0.7071067811865471286, 0.000000000000000000, -0.7071067811865479058 ) ) ;
#808 = LINE ( 'NONE', #261, #623 ) ;
#809 = VERTEX_POINT ( 'NONE', #677 ) ;
#810 = ADVANCED_FACE ( 'NONE', ( #835 ), #53, .F. ) ;
#811 = CARTESIAN_POINT ( 'NONE',  ( 0.3333333333333333148, -0.3333333333333330928, 2.813648543307086580 ) ) ;
#812 = LINE ( 'NONE', #746, #656 ) ;
#813 = ORIENTED_EDGE ( 'NONE', *, *, #231, .F. ) ;
#814 = EDGE_CURVE ( 'NONE', #682, #539, #71, .T. ) ;
#815 = LINE ( 'NONE', #586, #46 ) ;
#816 = VECTOR ( 'NONE', #272, 39.37007874015748143 ) ;
#817 = CARTESIAN_POINT ( 'NONE',  ( 0.1666666666666669627, 0.1333333333333334147, -2.771981876640420062 ) ) ;
#818 = EDGE_LOOP ( 'NONE', ( #70, #761, #387, #611 ) ) ;
#819 = VECTOR ( 'NONE', #768, 39.37007874015748143 ) ;
#820 = CARTESIAN_POINT ( 'NONE',  ( 0.000000000000000000, 0.3333333333333341475, -2.813648543307086580 ) ) ;
#821 = ORIENTED_EDGE ( 'NONE', *, *, #916, .F. ) ;
#822 = CARTESIAN_POINT ( 'NONE',  ( 1.451646602123879637, 0.1333333333333334147, -1.451646602123878083 ) ) ;
#823 = ORIENTED_EDGE ( 'NONE', *, *, #425, .F. ) ;
#824 = PLANE ( 'NONE',  #221 ) ;
#825 = EDGE_CURVE ( 'NONE', #225, #226, #287, .T. ) ;
#826 = ORIENTED_EDGE ( 'NONE', *, *, #305, .F. ) ;
#827 = SURFACE_STYLE_FILL_AREA ( #63 ) ;
#828 = EDGE_LOOP ( 'NONE', ( #116, #291, #391, #210 ) ) ;
#829 = CARTESIAN_POINT ( 'NONE',  ( 0.1666666666666667129, 0.3333333333333334259, 2.486626537581092755 ) ) ;
#830 = ORIENTED_EDGE ( 'NONE', *, *, #159, .F. ) ;
#831 = VECTOR ( 'NONE', #612, 39.37007874015748143 ) ;
#832 = SURFACE_SIDE_STYLE ('',( #827 ) ) ;
#833 = ORIENTED_EDGE ( 'NONE', *, *, #958, .F. ) ;
#834 = VECTOR ( 'NONE', #607, 39.37007874015748143 ) ;
#835 = FACE_OUTER_BOUND ( 'NONE', #129, .T. ) ;
#836 = ORIENTED_EDGE ( 'NONE', *, *, #425, .T. ) ;
#837 = ORIENTED_EDGE ( 'NONE', *, *, #211, .T. ) ;
#838 = CARTESIAN_POINT ( 'NONE',  ( -1.284979935457212674, 0.1333333333333334147, -1.284979935457211564 ) ) ;
#839 = FACE_OUTER_BOUND ( 'NONE', #61, .T. ) ;
#840 = ORIENTED_EDGE ( 'NONE', *, *, #159, .T. ) ;
#841 = EDGE_LOOP ( 'NONE', ( #909, #120, #840, #499 ) ) ;
#842 = ADVANCED_FACE ( 'NONE', ( #784 ), #461, .F. ) ;
#843 = ADVANCED_FACE ( 'NONE', ( #472 ), #723, .T. ) ;
#844 = LINE ( 'NONE', #465, #15 ) ;
#845 = LINE ( 'NONE', #244, #579 ) ;
#846 = EDGE_CURVE ( 'NONE', #680, #83, #307, .T. ) ;
#847 = CARTESIAN_POINT ( 'NONE',  ( 0.04166666666666718477, 0.1333333333333334147, -2.646981876640420062 ) ) ;
#848 = VECTOR ( 'NONE', #252, 39.37007874015748143 ) ;
#849 = ORIENTED_EDGE ( 'NONE', *, *, #29, .F. ) ;
#850 = FACE_BOUND ( 'NONE', #828, .T. ) ;
#851 = AXIS2_PLACEMENT_3D ( 'NONE', #292, #936, #474 ) ;
#852 = DIRECTION ( 'NONE',  ( 0.000000000000000000, -1.820488561126394261E-16, -1.000000000000000000 ) ) ;
#853 = CARTESIAN_POINT ( 'NONE',  ( 0.000000000000000000, 0.3333333333333341475, -2.480315209973753099 ) ) ;
#854 = CARTESIAN_POINT ( 'NONE',  ( 0.2916666666666667407, 0.1333333333333334147, -2.646981876640420062 ) ) ;
#855 = EDGE_CURVE ( 'NONE', #771, #672, #773, .T. ) ;
#856 = ORIENTED_EDGE ( 'NONE', *, *, #669, .F. ) ;
#857 = LINE ( 'NONE', #922, #265 ) ;
#858 = LINE ( 'NONE', #25, #336 ) ;
#859 = ORIENTED_EDGE ( 'NONE', *, *, #160, .T. ) ;
#860 = CARTESIAN_POINT ( 'NONE',  ( 0.2083333333333338977, 0.2494077682344540137, 2.646981876640420062 ) ) ;
#861 = CARTESIAN_POINT ( 'NONE',  ( 0.1666666666666667129, 0.3333333333333341475, -2.486626537581090535 ) ) ;
#862 = DIRECTION ( 'NONE',  ( -0.7071067811865473507, 0.000000000000000000, -0.7071067811865476838 ) ) ;
#863 = CARTESIAN_POINT ( 'NONE',  ( 0.1666666666666666574, 0.3083333333333330151, 2.771981876640420062 ) ) ;
#864 = DIRECTION ( 'NONE',  ( 0.7071067811865476838, 0.000000000000000000, 0.7071067811865473507 ) ) ;
#865 = AXIS2_PLACEMENT_3D ( 'NONE', #19, #637, #631 ) ;
#866 = CARTESIAN_POINT ( 'NONE',  ( 0.1666666666666666574, 0.1583333333333338810, 2.521981876640420062 ) ) ;
#867 = CARTESIAN_POINT ( 'NONE',  ( 0.04166666666666718477, 0.3083333333333326265, -2.646981876640420062 ) ) ;
#868 = CARTESIAN_POINT ( 'NONE',  ( 0.000000000000000000, -0.3333333333333330928, 2.813648543307086580 ) ) ;
#869 = LINE ( 'NONE', #401, #282 ) ;
#870 = VECTOR ( 'NONE', #601, 39.37007874015748143 ) ;
#871 = PLANE ( 'NONE',  #137 ) ;
#872 = FACE_OUTER_BOUND ( 'NONE', #43, .T. ) ;
#873 = LINE ( 'NONE', #184, #34 ) ;
#874 = CARTESIAN_POINT ( 'NONE',  ( 0.3333333333333333148, 0.3333333333333341475, -2.813648543307086580 ) ) ;
#875 = EDGE_CURVE ( 'NONE', #533, #222, #98, .T. ) ;
#877 = ORIENTED_EDGE ( 'NONE', *, *, #846, .T. ) ;
#876 = EDGE_CURVE ( 'NONE', #929, #132, #466, .T. ) ;
#878 =( CONVERSION_BASED_UNIT ( 'INCH', #192 ) LENGTH_UNIT ( ) NAMED_UNIT ( #298 ) );
#879 = EDGE_CURVE ( 'NONE', #343, #488, #858, .T. ) ;
#880 = CARTESIAN_POINT ( 'NONE',  ( 0.04166666666666671986, 0.1583333333333336590, 2.646981876640420062 ) ) ;
#881 = PLANE ( 'NONE',  #527 ) ;
#882 = ORIENTED_EDGE ( 'NONE', *, *, #516, .T. ) ;
#883 = VECTOR ( 'NONE', #483, 39.37007874015748143 ) ;
#884 =( NAMED_UNIT ( * ) PLANE_ANGLE_UNIT ( ) SI_UNIT ( $, .RADIAN. ) );
#885 = LINE ( 'NONE', #358, #297 ) ;
#886 = AXIS2_PLACEMENT_3D ( 'NONE', #534, #224, #918 ) ;
#887 = VECTOR ( 'NONE', #655, 39.37007874015748143 ) ;
#888 = DIRECTION ( 'NONE',  ( 0.000000000000000000, -1.000000000000000000, -1.239088072561881342E-16 ) ) ;
#889 = EDGE_CURVE ( 'NONE', #225, #488, #558, .T. ) ;
#890 = EDGE_CURVE ( 'NONE', #911, #520, #778, .T. ) ;
#891 = ORIENTED_EDGE ( 'NONE', *, *, #904, .F. ) ;
#892 = PRODUCT_CONTEXT ( 'NONE', #557, 'mechanical' ) ;
#893 = FACE_OUTER_BOUND ( 'NONE', #739, .T. ) ;
#894 = CARTESIAN_POINT ( 'NONE',  ( 0.2916666666666665186, 0.3083333333333330151, 2.646981876640420062 ) ) ;
#895 = ORIENTED_EDGE ( 'NONE', *, *, #621, .T. ) ;
#896 = DIRECTION ( 'NONE',  ( 1.000000000000000000, 0.000000000000000000, 0.000000000000000000 ) ) ;
#897 = FACE_OUTER_BOUND ( 'NONE', #285, .T. ) ;
#898 = CARTESIAN_POINT ( 'NONE',  ( 0.9336752960308299931, -0.4724120173669577594, 2.646981876640417841 ) ) ;
#899 = EDGE_LOOP ( 'NONE', ( #198, #36, #134, #296 ) ) ;
#900 = DIRECTION ( 'NONE',  ( 0.7071067811865473507, 0.000000000000000000, 0.7071067811865476838 ) ) ;
#901 = LINE ( 'NONE', #431, #367 ) ;
#902 = ORIENTED_EDGE ( 'NONE', *, *, #381, .F. ) ;
#903 = AXIS2_PLACEMENT_3D ( 'NONE', #957, #734, #807 ) ;
#904 = EDGE_CURVE ( 'NONE', #520, #470, #937, .T. ) ;
#905 = CARTESIAN_POINT ( 'NONE',  ( 0.000000000000000000, 0.3333333333333334259, 2.813648543307086580 ) ) ;
#906 = ORIENTED_EDGE ( 'NONE', *, *, #339, .F. ) ;
#907 = ORIENTED_EDGE ( 'NONE', *, *, #66, .T. ) ;
#908 = CARTESIAN_POINT ( 'NONE',  ( 0.3333333333333333148, 0.3333333333333341475, -2.813648543307086580 ) ) ;
#909 = ORIENTED_EDGE ( 'NONE', *, *, #469, .F. ) ;
#910 = CARTESIAN_POINT ( 'NONE',  ( 1.053201510618368086, 0.6968197856014147762, -2.646981876640424058 ) ) ;
#911 = VERTEX_POINT ( 'NONE', #89 ) ;
#912 = FACE_OUTER_BOUND ( 'NONE', #39, .T. ) ;
#913 = ORIENTED_EDGE ( 'NONE', *, *, #712, .F. ) ;
#914 = CARTESIAN_POINT ( 'NONE',  ( 0.07702200572599478268, 0.1333333333333334147, -2.646981876640420062 ) ) ;
#915 = ORIENTED_EDGE ( 'NONE', *, *, #487, .F. ) ;
#916 = EDGE_CURVE ( 'NONE', #719, #522, #549, .T. ) ;
#917 = AXIS2_PLACEMENT_3D ( 'NONE', #37, #344, #50 ) ;
#918 = DIRECTION ( 'NONE',  ( 0.000000000000000000, 0.000000000000000000, -1.000000000000000000 ) ) ;
#919 = ORIENTED_EDGE ( 'NONE', *, *, #349, .T. ) ;
#920 = VERTEX_POINT ( 'NONE', #167 ) ;
#921 = EDGE_CURVE ( 'NONE', #196, #373, #311, .T. ) ;
#922 = CARTESIAN_POINT ( 'NONE',  ( 0.3333333333333333148, -0.3333333333333330928, 2.813648543307086580 ) ) ;
#923 = CARTESIAN_POINT ( 'NONE',  ( 0.000000000000000000, 8.366284480596805737E-16, -2.480315209973753099 ) ) ;
#924 = ORIENTED_EDGE ( 'NONE', *, *, #825, .T. ) ;
#925 = VERTEX_POINT ( 'NONE', #254 ) ;
#926 = CARTESIAN_POINT ( 'NONE',  ( 0.1666666666666669627, 0.3083333333333326265, -2.771981876640420062 ) ) ;
#927 = DIRECTION ( 'NONE',  ( -0.000000000000000000, 1.000000000000000000, -0.000000000000000000 ) ) ;
#928 = EDGE_CURVE ( 'NONE', #249, #196, #845, .T. ) ;
#929 = VERTEX_POINT ( 'NONE', #18 ) ;
#930 = AXIS2_PLACEMENT_3D ( 'NONE', #619, #22, #234 ) ;
#931 = ORIENTED_EDGE ( 'NONE', *, *, #928, .F. ) ;
#932 = AXIS2_PLACEMENT_3D ( 'NONE', #372, #60, #537 ) ;
#933 = EDGE_CURVE ( 'NONE', #986, #16, #553, .T. ) ;
#934 = DIRECTION ( 'NONE',  ( -0.7071067811865471286, 0.000000000000000000, -0.7071067811865479058 ) ) ;
#935 = ORIENTED_EDGE ( 'NONE', *, *, #315, .F. ) ;
#936 = DIRECTION ( 'NONE',  ( 0.7071067811865476838, 0.000000000000000000, -0.7071067811865473507 ) ) ;
#937 = LINE ( 'NONE', #12, #158 ) ;
#938 = ORIENTED_EDGE ( 'NONE', *, *, #802, .T. ) ;
#939 = CARTESIAN_POINT ( 'NONE',  ( 0.1666666666666665741, 0.1333333333333334147, 2.557337215699750033 ) ) ;
#940 = PRODUCT_DEFINITION_CONTEXT ( 'detailed design', #721, 'design' ) ;
#941 = FACE_OUTER_BOUND ( 'NONE', #492, .T. ) ;
#942 = CARTESIAN_POINT ( 'NONE',  ( 0.000000000000000000, 8.366284480596805737E-16, -2.480315209973753099 ) ) ;
#943 = LINE ( 'NONE', #853, #710 ) ;
#944 = LINE ( 'NONE', #560, #156 ) ;
#945 = DIRECTION ( 'NONE',  ( 0.5000000000000013323, -0.7071067811865455743, 0.5000000000000015543 ) ) ;
#946 = CARTESIAN_POINT ( 'NONE',  ( 0.000000000000000000, 0.1333333333333334147, 0.000000000000000000 ) ) ;
#947 = DIRECTION ( 'NONE',  ( -4.486912934894960446E-15, -0.5773502691896311712, -0.8164965809277222597 ) ) ;
#948 = AXIS2_PLACEMENT_3D ( 'NONE', #147, #456, #591 ) ;
#949 = ADVANCED_FACE ( 'NONE', ( #152 ), #389, .F. ) ;
#950 =( GEOMETRIC_REPRESENTATION_CONTEXT ( 3 ) GLOBAL_UNCERTAINTY_ASSIGNED_CONTEXT ( ( #629 ) ) GLOBAL_UNIT_ASSIGNED_CONTEXT ( ( #878, #884, #113 ) ) REPRESENTATION_CONTEXT ( 'NONE', 'WORKASPACE' ) );
#951 = DIRECTION ( 'NONE',  ( -1.000000000000000000, -0.000000000000000000, -0.000000000000000000 ) ) ;
#952 = CARTESIAN_POINT ( 'NONE',  ( 0.3333333333333333148, -0.3333333333333341475, -2.813648543307086580 ) ) ;
#953 = LINE ( 'NONE', #194, #675 ) ;
#954 = DIRECTION ( 'NONE',  ( 0.000000000000000000, 1.000000000000000000, 0.000000000000000000 ) ) ;
#955 = ORIENTED_EDGE ( 'NONE', *, *, #570, .F. ) ;
#956 = DIRECTION ( 'NONE',  ( 0.7071067811865473507, 0.000000000000000000, -0.7071067811865476838 ) ) ;
#957 = CARTESIAN_POINT ( 'NONE',  ( 1.451646602123879637, 0.1333333333333334147, -1.451646602123878083 ) ) ;
#958 = EDGE_CURVE ( 'NONE', #5, #204, #698, .T. ) ;
#959 = EDGE_CURVE ( 'NONE', #435, #986, #543, .T. ) ;
#960 = CARTESIAN_POINT ( 'NONE',  ( 0.1666666666666669627, 0.3083333333333326265, -2.771981876640420062 ) ) ;
#961 = ORIENTED_EDGE ( 'NONE', *, *, #241, .F. ) ;
#962 = VECTOR ( 'NONE', #800, 39.37007874015748143 ) ;
#963 = DIRECTION ( 'NONE',  ( -0.000000000000000000, 1.000000000000000000, -0.000000000000000000 ) ) ;
#964 = VECTOR ( 'NONE', #519, 39.37007874015748143 ) ;
#965 = FILL_AREA_STYLE_COLOUR ( '', #659 ) ;
#966 = VERTEX_POINT ( 'NONE', #161 ) ;
#967 = CARTESIAN_POINT ( 'NONE',  ( 0.1666666666666667962, 0.1583333333333330484, -2.521981876640420062 ) ) ;
#968 = DIRECTION ( 'NONE',  ( 0.7071067811865473507, 0.000000000000000000, -0.7071067811865476838 ) ) ;
#969 = CARTESIAN_POINT ( 'NONE',  ( 0.3333333333333333148, 0.3333333333333341475, -2.480315209973753099 ) ) ;
#970 = DIRECTION ( 'NONE',  ( 0.7071067811865476838, 0.000000000000000000, -0.7071067811865473507 ) ) ;
#971 = EDGE_CURVE ( 'NONE', #925, #377, #394, .T. ) ;
#972 = SURFACE_STYLE_USAGE ( .BOTH. , #832 ) ;
#973 = ORIENTED_EDGE ( 'NONE', *, *, #313, .F. ) ;
#974 = DIRECTION ( 'NONE',  ( -0.7071067811865466846, 0.000000000000000000, -0.7071067811865483499 ) ) ;
#975 = EDGE_LOOP ( 'NONE', ( #267, #309, #532, #365 ) ) ;
#976 = EDGE_CURVE ( 'NONE', #986, #771, #49, .T. ) ;
#977 = VECTOR ( 'NONE', #274, 39.37007874015748854 ) ;
#978 =( NAMED_UNIT ( * ) PLANE_ANGLE_UNIT ( ) SI_UNIT ( $, .RADIAN. ) );
#979 = ORIENTED_EDGE ( 'NONE', *, *, #879, .F. ) ;
#980 = ADVANCED_FACE ( 'NONE', ( #872 ), #337, .F. ) ;
#981 = CARTESIAN_POINT ( 'NONE',  ( 0.04166666666666718477, 0.1583333333333331316, -2.646981876640420062 ) ) ;
#982 = ORIENTED_EDGE ( 'NONE', *, *, #976, .T. ) ;
#983 = LINE ( 'NONE', #910, #108 ) ;
#984 = ORIENTED_EDGE ( 'NONE', *, *, #933, .F. ) ;
#985 = DIRECTION ( 'NONE',  ( -0.7071067811865472397, 0.000000000000000000, 0.7071067811865479058 ) ) ;
#986 = VERTEX_POINT ( 'NONE', #501 ) ;
#987 = EDGE_CURVE ( 'NONE', #966, #733, #353, .T. ) ;
#988 = ADVANCED_FACE ( 'NONE', ( #32 ), #506, .F. ) ;
#989 = DIRECTION ( 'NONE',  ( 0.000000000000000000, 0.000000000000000000, 1.000000000000000000 ) ) ;
#990 = ORIENTED_EDGE ( 'NONE', *, *, #772, .F. ) ;
#991 = PLANE ( 'NONE',  #628 ) ;
#992 = VECTOR ( 'NONE', #467, 39.37007874015748143 ) ;
#993 = VERTEX_POINT ( 'NONE', #183 ) ;
ENDSEC;
END-ISO-10303-21;
