ISO-10303-21;
HEADER;
FILE_DESCRIPTION (( 'STEP AP214' ),
    '1' );
FILE_NAME ('pin.STEP',
    '2026-09-26T18:52:08',
    ( '' ),
    ( '' ),
    'SwSTEP 2.0',
    'SolidWorks 2025',
    '' );
FILE_SCHEMA (( 'AUTOMOTIVE_DESIGN' ));
ENDSEC;

DATA;
#1 = CARTESIAN_POINT ( 'NONE',  ( 0.000000000000000000, 0.1432411613907039472, -0.1432411613907039472 ) ) ;
#2 = AXIS2_PLACEMENT_3D ( 'NONE', #140, #266, #364 ) ;
#3 = EDGE_CURVE ( 'NONE', #45, #49, #254, .T. ) ;
#4 = ORIENTED_EDGE ( 'NONE', *, *, #155, .F. ) ;
#5 = LINE ( 'NONE', #210, #153 ) ;
#6 = PLANE ( 'NONE',  #293 ) ;
#7 = CARTESIAN_POINT ( 'NONE',  ( 0.3842519685039370025, 0.03000000000000002318, 0.000000000000000000 ) ) ;
#8 = ORIENTED_EDGE ( 'NONE', *, *, #161, .T. ) ;
#9 = PLANE ( 'NONE',  #277 ) ;
#10 = FACE_OUTER_BOUND ( 'NONE', #316, .T. ) ;
#11 = CARTESIAN_POINT ( 'NONE',  ( 0.3542519685039368649, 0.000000000000000000, 0.000000000000000000 ) ) ;
#12 = ADVANCED_FACE ( 'NONE', ( #259 ), #383, .F. ) ;
#13 = DIRECTION ( 'NONE',  ( 0.000000000000000000, 0.000000000000000000, -1.000000000000000000 ) ) ;
#14 = CARTESIAN_POINT ( 'NONE',  ( 0.3842519685039370025, 0.000000000000000000, -0.1732411613907041126 ) ) ;
#15 = VECTOR ( 'NONE', #107, 39.37007874015748143 ) ;
#16 = LINE ( 'NONE', #129, #360 ) ;
#17 = ORIENTED_EDGE ( 'NONE', *, *, #42, .T. ) ;
#18 = CARTESIAN_POINT ( 'NONE',  ( 0.000000000000000000, 0.03000000000000015848, 0.000000000000000000 ) ) ;
#19 = ORIENTED_EDGE ( 'NONE', *, *, #200, .T. ) ;
#20 = CARTESIAN_POINT ( 'NONE',  ( 0.3842519685039370025, 0.1432411613907040859, 0.000000000000000000 ) ) ;
#21 = VERTEX_POINT ( 'NONE', #151 ) ;
#22 = DIRECTION ( 'NONE',  ( -0.7071067811865459074, -0.7071067811865491270, 0.000000000000000000 ) ) ;
#23 = VECTOR ( 'NONE', #358, 39.37007874015748143 ) ;
#24 = ADVANCED_FACE ( 'NONE', ( #235 ), #62, .F. ) ;
#25 = DIRECTION ( 'NONE',  ( -0.5773502691896239547, 0.5773502691896266192, -0.5773502691896266192 ) ) ;
#26 = VECTOR ( 'NONE', #296, 39.37007874015748143 ) ;
#27 = ADVANCED_FACE ( 'NONE', ( #270 ), #6, .F. ) ;
#28 = ORIENTED_EDGE ( 'NONE', *, *, #3, .T. ) ;
#29 = FACE_OUTER_BOUND ( 'NONE', #189, .T. ) ;
#30 = DIRECTION ( 'NONE',  ( 0.000000000000000000, 1.000000000000000000, -0.000000000000000000 ) ) ;
#31 = PRODUCT_DEFINITION_CONTEXT ( 'detailed design', #233, 'design' ) ;
#32 = CARTESIAN_POINT ( 'NONE',  ( 0.000000000000000000, 0.000000000000000000, 0.000000000000000000 ) ) ;
#33 = ORIENTED_EDGE ( 'NONE', *, *, #91, .F. ) ;
#34 = DIRECTION ( 'NONE',  ( 0.000000000000000000, 0.000000000000000000, 1.000000000000000000 ) ) ;
#35 = VECTOR ( 'NONE', #154, 39.37007874015748854 ) ;
#36 = EDGE_LOOP ( 'NONE', ( #281, #61, #297, #58 ) ) ;
#37 = FACE_OUTER_BOUND ( 'NONE', #59, .T. ) ;
#38 = SURFACE_SIDE_STYLE ('',( #307 ) ) ;
#39 = ORIENTED_EDGE ( 'NONE', *, *, #161, .F. ) ;
#40 = ORIENTED_EDGE ( 'NONE', *, *, #190, .F. ) ;
#41 = CARTESIAN_POINT ( 'NONE',  ( 0.03000000000000002318, 0.000000000000000000, -0.1732411613907041126 ) ) ;
#42 = EDGE_CURVE ( 'NONE', #51, #309, #169, .T. ) ;
#43 = VECTOR ( 'NONE', #328, 39.37007874015748143 ) ;
#44 =( LENGTH_UNIT ( ) NAMED_UNIT ( * ) SI_UNIT ( $, .METRE. ) );
#45 = VERTEX_POINT ( 'NONE', #232 ) ;
#46 = DIRECTION ( 'NONE',  ( 0.000000000000000000, 0.000000000000000000, -1.000000000000000000 ) ) ;
#47 = VECTOR ( 'NONE', #133, 39.37007874015748143 ) ;
#48 = FACE_OUTER_BOUND ( 'NONE', #335, .T. ) ;
#49 = VERTEX_POINT ( 'NONE', #368 ) ;
#50 = DIRECTION ( 'NONE',  ( 0.000000000000000000, 0.000000000000000000, -1.000000000000000000 ) ) ;
#51 = VERTEX_POINT ( 'NONE', #177 ) ;
#52 = LINE ( 'NONE', #54, #15 ) ;
#53 = ADVANCED_FACE ( 'NONE', ( #265 ), #9, .F. ) ;
#54 = CARTESIAN_POINT ( 'NONE',  ( 0.000000000000000000, 0.1432411613907039472, -0.1732411613907041126 ) ) ;
#55 = CARTESIAN_POINT ( 'NONE',  ( 0.3842519685039370025, 0.000000000000000000, 0.000000000000000000 ) ) ;
#56 = DIRECTION ( 'NONE',  ( -0.5773502691896275074, -0.5773502691896248429, -0.5773502691896248429 ) ) ;
#57 = ADVANCED_FACE ( 'NONE', ( #147 ), #366, .T. ) ;
#58 = ORIENTED_EDGE ( 'NONE', *, *, #349, .F. ) ;
#59 = EDGE_LOOP ( 'NONE', ( #288, #150, #28, #343 ) ) ;
#60 = PLANE ( 'NONE',  #327 ) ;
#61 = ORIENTED_EDGE ( 'NONE', *, *, #229, .F. ) ;
#62 = PLANE ( 'NONE',  #376 ) ;
#63 = DIRECTION ( 'NONE',  ( 1.000000000000000000, 0.000000000000000000, 0.000000000000000000 ) ) ;
#64 = DIRECTION ( 'NONE',  ( -0.000000000000000000, 1.000000000000000000, 0.000000000000000000 ) ) ;
#65 = ADVANCED_BREP_SHAPE_REPRESENTATION ( 'pin', ( #128, #355 ), #298 ) ;
#66 = FILL_AREA_STYLE ('',( #208 ) ) ;
#67 = VECTOR ( 'NONE', #243, 39.37007874015748143 ) ;
#68 = DIRECTION ( 'NONE',  ( 0.5773502691896239547, 0.5773502691896266192, -0.5773502691896266192 ) ) ;
#69 = LINE ( 'NONE', #372, #67 ) ;
#70 = CARTESIAN_POINT ( 'NONE',  ( 0.000000000000000000, 0.000000000000000000, -0.1432411613907039472 ) ) ;
#71 = VECTOR ( 'NONE', #261, 39.37007874015748143 ) ;
#72 = ORIENTED_EDGE ( 'NONE', *, *, #42, .F. ) ;
#73 = CARTESIAN_POINT ( 'NONE',  ( 0.3842519685039370025, 0.1432411613907040859, -0.1432411613907040859 ) ) ;
#74 = VERTEX_POINT ( 'NONE', #110 ) ;
#75 = VERTEX_POINT ( 'NONE', #205 ) ;
#76 = DIRECTION ( 'NONE',  ( 0.000000000000000000, -1.000000000000000000, 0.000000000000000000 ) ) ;
#77 = DIRECTION ( 'NONE',  ( 0.5773502691896239547, -0.5773502691896266192, -0.5773502691896266192 ) ) ;
#78 = DIRECTION ( 'NONE',  ( 0.000000000000000000, -1.000000000000000000, 0.000000000000000000 ) ) ;
#79 = ADVANCED_FACE ( 'NONE', ( #29 ), #94, .F. ) ;
#80 = LINE ( 'NONE', #55, #26 ) ;
#81 = ADVANCED_FACE ( 'NONE', ( #37 ), #88, .T. ) ;
#82 = ORIENTED_EDGE ( 'NONE', *, *, #353, .T. ) ;
#83 = LINE ( 'NONE', #193, #319 ) ;
#84 = VECTOR ( 'NONE', #191, 39.37007874015748854 ) ;
#85 = CARTESIAN_POINT ( 'NONE',  ( 0.3842519685039370025, 0.000000000000000000, -0.03000000000000002318 ) ) ;
#86 = LINE ( 'NONE', #196, #139 ) ;
#87 = DIRECTION ( 'NONE',  ( 0.000000000000000000, 0.000000000000000000, 1.000000000000000000 ) ) ;
#88 = PLANE ( 'NONE',  #2 ) ;
#89 = DIRECTION ( 'NONE',  ( -1.000000000000000000, 0.000000000000000000, 0.000000000000000000 ) ) ;
#90 = DIRECTION ( 'NONE',  ( 0.000000000000000000, 0.000000000000000000, 1.000000000000000000 ) ) ;
#91 = EDGE_CURVE ( 'NONE', #49, #282, #5, .T. ) ;
#92 = PLANE ( 'NONE',  #98 ) ;
#93 = EDGE_LOOP ( 'NONE', ( #380, #222, #123, #8 ) ) ;
#94 = PLANE ( 'NONE',  #234 ) ;
#95 = VECTOR ( 'NONE', #167, 39.37007874015748143 ) ;
#96 = EDGE_CURVE ( 'NONE', #282, #21, #172, .T. ) ;
#97 = LENGTH_MEASURE_WITH_UNIT ( LENGTH_MEASURE( 0.02539999999999999897 ), #44 );
#98 = AXIS2_PLACEMENT_3D ( 'NONE', #345, #185, #218 ) ;
#99 = CARTESIAN_POINT ( 'NONE',  ( 0.3742519685039369937, 0.02000000000000004205, -0.02000000000000004205 ) ) ;
#100 = EDGE_LOOP ( 'NONE', ( #82, #314, #294, #109 ) ) ;
#101 = PLANE ( 'NONE',  #227 ) ;
#102 = LINE ( 'NONE', #252, #47 ) ;
#103 = VECTOR ( 'NONE', #275, 39.37007874015748143 ) ;
#104 = ADVANCED_FACE ( 'NONE', ( #149 ), #60, .F. ) ;
#105 = DIRECTION ( 'NONE',  ( 0.5773502691896275074, -0.5773502691896248429, -0.5773502691896248429 ) ) ;
#106 = ORIENTED_EDGE ( 'NONE', *, *, #96, .T. ) ;
#107 = DIRECTION ( 'NONE',  ( 0.000000000000000000, 0.000000000000000000, -1.000000000000000000 ) ) ;
#108 = CARTESIAN_POINT ( 'NONE',  ( 0.3542519685039368649, 0.1732411613907041126, -0.1732411613907041126 ) ) ;
#109 = ORIENTED_EDGE ( 'NONE', *, *, #256, .T. ) ;
#110 = CARTESIAN_POINT ( 'NONE',  ( 0.3542519685039368649, 0.1732411613907041126, 0.000000000000000000 ) ) ;
#111 = CARTESIAN_POINT ( 'NONE',  ( 0.3842519685039370025, 0.000000000000000000, -0.03000000000000002318 ) ) ;
#112 = EDGE_CURVE ( 'NONE', #331, #282, #339, .T. ) ;
#113 = AXIS2_PLACEMENT_3D ( 'NONE', #14, #216, #248 ) ;
#114 = DIRECTION ( 'NONE',  ( -0.7071067811865459074, 0.000000000000000000, 0.7071067811865491270 ) ) ;
#115 = VECTOR ( 'NONE', #78, 39.37007874015748143 ) ;
#116 = DIRECTION ( 'NONE',  ( 0.000000000000000000, -0.000000000000000000, 1.000000000000000000 ) ) ;
#117 = ORIENTED_EDGE ( 'NONE', *, *, #112, .F. ) ;
#118 = CARTESIAN_POINT ( 'NONE',  ( 0.000000000000000000, 0.000000000000000000, 0.000000000000000000 ) ) ;
#119 = ADVANCED_FACE ( 'NONE', ( #179 ), #175, .F. ) ;
#120 = PRESENTATION_STYLE_ASSIGNMENT (( #201 ) ) ;
#121 = ORIENTED_EDGE ( 'NONE', *, *, #337, .T. ) ;
#122 = LINE ( 'NONE', #315, #347 ) ;
#123 = ORIENTED_EDGE ( 'NONE', *, *, #378, .F. ) ;
#124 = DIRECTION ( 'NONE',  ( -0.7071067811865491270, -0.000000000000000000, -0.7071067811865459074 ) ) ;
#125 = CARTESIAN_POINT ( 'NONE',  ( 0.3842519685039370025, 0.1432411613907040859, 0.000000000000000000 ) ) ;
#126 =( GEOMETRIC_REPRESENTATION_CONTEXT ( 3 ) GLOBAL_UNCERTAINTY_ASSIGNED_CONTEXT ( ( #338 ) ) GLOBAL_UNIT_ASSIGNED_CONTEXT ( ( #240, #348, #370 ) ) REPRESENTATION_CONTEXT ( 'NONE', 'WORKASPACE' ) );
#127 = ORIENTED_EDGE ( 'NONE', *, *, #276, .T. ) ;
#128 = MANIFOLD_SOLID_BREP ( 'Chamfer1', #202 ) ;
#129 = CARTESIAN_POINT ( 'NONE',  ( 0.3542519685039368649, 0.000000000000000000, 0.000000000000000000 ) ) ;
#130 = ORIENTED_EDGE ( 'NONE', *, *, #214, .F. ) ;
#131 = CARTESIAN_POINT ( 'NONE',  ( 0.03000000000000002318, 0.000000000000000000, -0.1732411613907041126 ) ) ;
#132 = ADVANCED_FACE ( 'NONE', ( #211 ), #92, .F. ) ;
#133 = DIRECTION ( 'NONE',  ( 0.000000000000000000, -1.000000000000000000, 0.000000000000000000 ) ) ;
#134 = ORIENTED_EDGE ( 'NONE', *, *, #96, .F. ) ;
#135 = VECTOR ( 'NONE', #90, 39.37007874015748143 ) ;
#136 = LINE ( 'NONE', #381, #176 ) ;
#137 = LINE ( 'NONE', #18, #95 ) ;
#138 = LENGTH_MEASURE_WITH_UNIT ( LENGTH_MEASURE( 0.02539999999999999897 ), #292 );
#139 = VECTOR ( 'NONE', #321, 39.37007874015748143 ) ;
#140 = CARTESIAN_POINT ( 'NONE',  ( 0.03000000000000002318, 0.000000000000000000, 0.000000000000000000 ) ) ;
#141 = PRODUCT_DEFINITION ( 'UNKNOWN', '', #166, #31 ) ;
#142 = EDGE_CURVE ( 'NONE', #21, #371, #69, .T. ) ;
#143 = EDGE_LOOP ( 'NONE', ( #178, #272, #217, #220 ) ) ;
#144 = DIRECTION ( 'NONE',  ( 0.000000000000000000, -1.000000000000000000, 0.000000000000000000 ) ) ;
#145 = APPLICATION_PROTOCOL_DEFINITION ( 'draft international standard', 'automotive_design', 1998, #215 ) ;
#146 = STYLED_ITEM ( 'NONE', ( #120 ), #128 ) ;
#147 = FACE_OUTER_BOUND ( 'NONE', #219, .T. ) ;
#148 = ORIENTED_EDGE ( 'NONE', *, *, #142, .F. ) ;
#149 = FACE_OUTER_BOUND ( 'NONE', #317, .T. ) ;
#150 = ORIENTED_EDGE ( 'NONE', *, *, #302, .F. ) ;
#151 = CARTESIAN_POINT ( 'NONE',  ( 0.03000000000000002318, 0.1732411613907041126, 0.000000000000000000 ) ) ;
#152 = CARTESIAN_POINT ( 'NONE',  ( 0.03000000000000002318, 0.1732411613907041126, 0.000000000000000000 ) ) ;
#153 = VECTOR ( 'NONE', #336, 39.37007874015748143 ) ;
#154 = DIRECTION ( 'NONE',  ( -0.5773502691896275074, 0.5773502691896248429, -0.5773502691896248429 ) ) ;
#155 = EDGE_CURVE ( 'NONE', #165, #284, #249, .T. ) ;
#156 = DIRECTION ( 'NONE',  ( 0.000000000000000000, 1.000000000000000000, 0.000000000000000000 ) ) ;
#157 = ORIENTED_EDGE ( 'NONE', *, *, #212, .T. ) ;
#158 = CARTESIAN_POINT ( 'NONE',  ( -0.02774705379690126442, 0.1154941075938025752, -0.05774705379690155127 ) ) ;
#159 = VECTOR ( 'NONE', #285, 39.37007874015748143 ) ;
#160 = DIRECTION ( 'NONE',  ( 0.000000000000000000, -1.000000000000000000, 0.000000000000000000 ) ) ;
#161 = EDGE_CURVE ( 'NONE', #164, #74, #246, .T. ) ;
#162 = EDGE_LOOP ( 'NONE', ( #157, #251, #279, #39 ) ) ;
#163 = CARTESIAN_POINT ( 'NONE',  ( 0.3842519685039370025, 0.000000000000000000, -0.1432411613907040859 ) ) ;
#164 = VERTEX_POINT ( 'NONE', #11 ) ;
#165 = VERTEX_POINT ( 'NONE', #73 ) ;
#166 = PRODUCT_DEFINITION_FORMATION_WITH_SPECIFIED_SOURCE ( 'ANY', '', #258, .NOT_KNOWN. ) ;
#167 = DIRECTION ( 'NONE',  ( 0.000000000000000000, -0.000000000000000000, 1.000000000000000000 ) ) ;
#168 = LINE ( 'NONE', #198, #43 ) ;
#169 = LINE ( 'NONE', #274, #103 ) ;
#170 = ADVANCED_FACE ( 'NONE', ( #48 ), #310, .T. ) ;
#171 = ORIENTED_EDGE ( 'NONE', *, *, #190, .T. ) ;
#172 = LINE ( 'NONE', #301, #135 ) ;
#173 = APPLICATION_PROTOCOL_DEFINITION ( 'draft international standard', 'automotive_design', 1998, #233 ) ;
#174 = ORIENTED_EDGE ( 'NONE', *, *, #349, .T. ) ;
#175 = PLANE ( 'NONE',  #267 ) ;
#176 = VECTOR ( 'NONE', #56, 39.37007874015748854 ) ;
#177 = CARTESIAN_POINT ( 'NONE',  ( 0.000000000000000000, 0.03000000000000015848, -0.03000000000000015848 ) ) ;
#178 = ORIENTED_EDGE ( 'NONE', *, *, #378, .T. ) ;
#179 = FACE_OUTER_BOUND ( 'NONE', #143, .T. ) ;
#180 = DIRECTION ( 'NONE',  ( -0.5773502691896239547, -0.5773502691896266192, -0.5773502691896266192 ) ) ;
#181 = CARTESIAN_POINT ( 'NONE',  ( 0.4319990223008384200, 0.09549410759380287661, -0.09549410759380289049 ) ) ;
#182 = AXIS2_PLACEMENT_3D ( 'NONE', #20, #22, #287 ) ;
#183 = EDGE_CURVE ( 'NONE', #284, #282, #245, .T. ) ;
#184 = ORIENTED_EDGE ( 'NONE', *, *, #268, .T. ) ;
#185 = DIRECTION ( 'NONE',  ( 0.000000000000000000, 0.000000000000000000, -1.000000000000000000 ) ) ;
#186 = ORIENTED_EDGE ( 'NONE', *, *, #363, .F. ) ;
#187 = ORIENTED_EDGE ( 'NONE', *, *, #112, .T. ) ;
#188 = LINE ( 'NONE', #70, #305 ) ;
#189 = EDGE_LOOP ( 'NONE', ( #184, #351, #4, #186 ) ) ;
#190 = EDGE_CURVE ( 'NONE', #21, #309, #283, .T. ) ;
#191 = DIRECTION ( 'NONE',  ( 0.5773502691896275074, 0.5773502691896248429, -0.5773502691896248429 ) ) ;
#192 = VECTOR ( 'NONE', #25, 39.37007874015748143 ) ;
#193 = CARTESIAN_POINT ( 'NONE',  ( 0.3842519685039370025, 0.03000000000000002318, 0.000000000000000000 ) ) ;
#194 = LINE ( 'NONE', #326, #262 ) ;
#195 = ORIENTED_EDGE ( 'NONE', *, *, #225, .F. ) ;
#196 = CARTESIAN_POINT ( 'NONE',  ( 0.3842519685039370025, 0.000000000000000000, -0.1732411613907041126 ) ) ;
#197 = ADVANCED_FACE ( 'NONE', ( #374 ), #101, .T. ) ;
#198 = CARTESIAN_POINT ( 'NONE',  ( 0.3842519685039370025, 0.1732411613907041126, 0.000000000000000000 ) ) ;
#199 =( CONVERSION_BASED_UNIT ( 'INCH', #138 ) LENGTH_UNIT ( ) NAMED_UNIT ( #204 ) );
#200 = EDGE_CURVE ( 'NONE', #165, #75, #278, .T. ) ;
#201 = SURFACE_STYLE_USAGE ( .BOTH. , #38 ) ;
#202 = CLOSED_SHELL ( 'NONE', ( #132, #119, #12, #104, #27, #57, #197, #334, #170, #81, #53, #79, #24, #242 ) ) ;
#203 = AXIS2_PLACEMENT_3D ( 'NONE', #361, #295, #324 ) ;
#204 = DIMENSIONAL_EXPONENTS ( 1.000000000000000000, 0.000000000000000000, 0.000000000000000000, 0.000000000000000000, 0.000000000000000000, 0.000000000000000000, 0.000000000000000000 ) ;
#205 = CARTESIAN_POINT ( 'NONE',  ( 0.3842519685039370025, 0.1432411613907040859, -0.03000000000000002318 ) ) ;
#206 = CARTESIAN_POINT ( 'NONE',  ( 0.3842519685039370025, 0.1732411613907041126, 0.000000000000000000 ) ) ;
#207 = UNCERTAINTY_MEASURE_WITH_UNIT (LENGTH_MEASURE( 1.000000000000000082E-05 ), #199, 'distance_accuracy_value', 'NONE');
#208 = FILL_AREA_STYLE_COLOUR ( '', #239 ) ;
#209 = VECTOR ( 'NONE', #68, 39.37007874015748143 ) ;
#210 = CARTESIAN_POINT ( 'NONE',  ( 0.03000000000000002318, 0.1732411613907041126, -0.1732411613907041126 ) ) ;
#211 = FACE_OUTER_BOUND ( 'NONE', #93, .T. ) ;
#212 = EDGE_CURVE ( 'NONE', #164, #340, #377, .T. ) ;
#213 = ORIENTED_EDGE ( 'NONE', *, *, #363, .T. ) ;
#214 = EDGE_CURVE ( 'NONE', #331, #45, #188, .T. ) ;
#215 = APPLICATION_CONTEXT ( 'automotive_design' ) ;
#216 = DIRECTION ( 'NONE',  ( 0.000000000000000000, 0.000000000000000000, 1.000000000000000000 ) ) ;
#217 = ORIENTED_EDGE ( 'NONE', *, *, #353, .F. ) ;
#218 = DIRECTION ( 'NONE',  ( -1.000000000000000000, 0.000000000000000000, -0.000000000000000000 ) ) ;
#219 = EDGE_LOOP ( 'NONE', ( #263, #290, #17, #127 ) ) ;
#220 = ORIENTED_EDGE ( 'NONE', *, *, #229, .T. ) ;
#221 = LINE ( 'NONE', #163, #71 ) ;
#222 = ORIENTED_EDGE ( 'NONE', *, *, #142, .T. ) ;
#223 = CARTESIAN_POINT ( 'NONE',  ( 0.03000000000000002318, 0.000000000000000000, 0.000000000000000000 ) ) ;
#224 = ORIENTED_EDGE ( 'NONE', *, *, #183, .T. ) ;
#225 = EDGE_CURVE ( 'NONE', #74, #284, #122, .T. ) ;
#226 = CARTESIAN_POINT ( 'NONE',  ( 0.3842519685039370025, 0.03000000000000002318, -0.1432411613907040859 ) ) ;
#227 = AXIS2_PLACEMENT_3D ( 'NONE', #152, #313, #13 ) ;
#228 = LINE ( 'NONE', #131, #23 ) ;
#229 = EDGE_CURVE ( 'NONE', #303, #164, #16, .T. ) ;
#230 = DIRECTION ( 'NONE',  ( 0.000000000000000000, 0.000000000000000000, -1.000000000000000000 ) ) ;
#231 =( NAMED_UNIT ( * ) SI_UNIT ( $, .STERADIAN. ) SOLID_ANGLE_UNIT ( ) );
#232 = CARTESIAN_POINT ( 'NONE',  ( 0.000000000000000000, 0.03000000000000015848, -0.1432411613907039472 ) ) ;
#233 = APPLICATION_CONTEXT ( 'automotive_design' ) ;
#234 = AXIS2_PLACEMENT_3D ( 'NONE', #238, #114, #30 ) ;
#235 = FACE_OUTER_BOUND ( 'NONE', #162, .T. ) ;
#236 = PRODUCT_CONTEXT ( 'NONE', #215, 'mechanical' ) ;
#237 = DIRECTION ( 'NONE',  ( -0.7071067811865459074, -0.000000000000000000, -0.7071067811865491270 ) ) ;
#238 = CARTESIAN_POINT ( 'NONE',  ( 0.3842519685039370025, 0.000000000000000000, -0.1432411613907040859 ) ) ;
#239 = COLOUR_RGB ( '',0.7921568627450980005, 0.8196078431372548767, 0.9333333333333333481 ) ;
#240 =( CONVERSION_BASED_UNIT ( 'INCH', #97 ) LENGTH_UNIT ( ) NAMED_UNIT ( #385 ) );
#241 = ORIENTED_EDGE ( 'NONE', *, *, #3, .F. ) ;
#242 = ADVANCED_FACE ( 'NONE', ( #10 ), #359, .F. ) ;
#243 = DIRECTION ( 'NONE',  ( 0.000000000000000000, -1.000000000000000000, 0.000000000000000000 ) ) ;
#244 = VERTEX_POINT ( 'NONE', #226 ) ;
#245 = LINE ( 'NONE', #350, #311 ) ;
#246 = LINE ( 'NONE', #280, #342 ) ;
#247 = AXIS2_PLACEMENT_3D ( 'NONE', #41, #124, #76 ) ;
#248 = DIRECTION ( 'NONE',  ( 1.000000000000000000, 0.000000000000000000, -0.000000000000000000 ) ) ;
#249 = LINE ( 'NONE', #181, #35 ) ;
#250 = CARTESIAN_POINT ( 'NONE',  ( 0.03000000000000002318, 0.1732411613907041126, -0.1732411613907041126 ) ) ;
#251 = ORIENTED_EDGE ( 'NONE', *, *, #337, .F. ) ;
#252 = CARTESIAN_POINT ( 'NONE',  ( 0.3542519685039368649, 0.000000000000000000, -0.1732411613907041126 ) ) ;
#253 = VECTOR ( 'NONE', #77, 39.37007874015748143 ) ;
#254 = LINE ( 'NONE', #357, #253 ) ;
#255 = PRODUCT_RELATED_PRODUCT_CATEGORY ( 'part', '', ( #258 ) ) ;
#256 = EDGE_CURVE ( 'NONE', #284, #303, #102, .T. ) ;
#257 = LINE ( 'NONE', #223, #192 ) ;
#258 = PRODUCT ( 'pin', 'pin', '', ( #236 ) ) ;
#259 = FACE_OUTER_BOUND ( 'NONE', #100, .T. ) ;
#260 = CARTESIAN_POINT ( 'NONE',  ( 0.3542519685039368649, 0.000000000000000000, -0.1732411613907041126 ) ) ;
#261 = DIRECTION ( 'NONE',  ( 0.000000000000000000, 1.000000000000000000, 0.000000000000000000 ) ) ;
#262 = VECTOR ( 'NONE', #105, 39.37007874015748854 ) ;
#263 = ORIENTED_EDGE ( 'NONE', *, *, #214, .T. ) ;
#264 =( NAMED_UNIT ( * ) PLANE_ANGLE_UNIT ( ) SI_UNIT ( $, .RADIAN. ) );
#265 = FACE_OUTER_BOUND ( 'NONE', #36, .T. ) ;
#266 = DIRECTION ( 'NONE',  ( -0.7071067811865491270, -0.7071067811865459074, 0.000000000000000000 ) ) ;
#267 = AXIS2_PLACEMENT_3D ( 'NONE', #332, #64, #116 ) ;
#268 = EDGE_CURVE ( 'NONE', #244, #303, #136, .T. ) ;
#269 = ORIENTED_EDGE ( 'NONE', *, *, #291, .T. ) ;
#270 = FACE_OUTER_BOUND ( 'NONE', #373, .T. ) ;
#271 = SHAPE_DEFINITION_REPRESENTATION ( #325, #65 ) ;
#272 = ORIENTED_EDGE ( 'NONE', *, *, #322, .T. ) ;
#273 = ORIENTED_EDGE ( 'NONE', *, *, #200, .F. ) ;
#274 = CARTESIAN_POINT ( 'NONE',  ( 0.000000000000000000, 0.1732411613907041126, -0.03000000000000015848 ) ) ;
#275 = DIRECTION ( 'NONE',  ( 0.000000000000000000, 1.000000000000000000, 0.000000000000000000 ) ) ;
#276 = EDGE_CURVE ( 'NONE', #309, #331, #52, .T. ) ;
#277 = AXIS2_PLACEMENT_3D ( 'NONE', #7, #306, #230 ) ;
#278 = LINE ( 'NONE', #125, #159 ) ;
#279 = ORIENTED_EDGE ( 'NONE', *, *, #291, .F. ) ;
#280 = CARTESIAN_POINT ( 'NONE',  ( 0.3542519685039368649, 0.000000000000000000, 0.000000000000000000 ) ) ;
#281 = ORIENTED_EDGE ( 'NONE', *, *, #212, .F. ) ;
#282 = VERTEX_POINT ( 'NONE', #250 ) ;
#283 = LINE ( 'NONE', #158, #369 ) ;
#284 = VERTEX_POINT ( 'NONE', #108 ) ;
#285 = DIRECTION ( 'NONE',  ( 0.000000000000000000, 0.000000000000000000, 1.000000000000000000 ) ) ;
#286 = PRESENTATION_LAYER_ASSIGNMENT (  '', '', ( #146 ) ) ;
#287 = DIRECTION ( 'NONE',  ( 0.000000000000000000, 0.000000000000000000, 1.000000000000000000 ) ) ;
#288 = ORIENTED_EDGE ( 'NONE', *, *, #308, .T. ) ;
#289 = FACE_OUTER_BOUND ( 'NONE', #323, .T. ) ;
#290 = ORIENTED_EDGE ( 'NONE', *, *, #302, .T. ) ;
#291 = EDGE_CURVE ( 'NONE', #74, #75, #194, .T. ) ;
#292 =( LENGTH_UNIT ( ) NAMED_UNIT ( * ) SI_UNIT ( $, .METRE. ) );
#293 = AXIS2_PLACEMENT_3D ( 'NONE', #365, #300, #34 ) ;
#294 = ORIENTED_EDGE ( 'NONE', *, *, #183, .F. ) ;
#295 = DIRECTION ( 'NONE',  ( -0.7071067811865491270, 0.000000000000000000, 0.7071067811865459074 ) ) ;
#296 = DIRECTION ( 'NONE',  ( -1.000000000000000000, -0.000000000000000000, -0.000000000000000000 ) ) ;
#297 = ORIENTED_EDGE ( 'NONE', *, *, #268, .F. ) ;
#298 =( GEOMETRIC_REPRESENTATION_CONTEXT ( 3 ) GLOBAL_UNCERTAINTY_ASSIGNED_CONTEXT ( ( #207 ) ) GLOBAL_UNIT_ASSIGNED_CONTEXT ( ( #199, #264, #231 ) ) REPRESENTATION_CONTEXT ( 'NONE', 'WORKASPACE' ) );
#299 = ORIENTED_EDGE ( 'NONE', *, *, #155, .T. ) ;
#300 = DIRECTION ( 'NONE',  ( -1.000000000000000000, 0.000000000000000000, 0.000000000000000000 ) ) ;
#301 = CARTESIAN_POINT ( 'NONE',  ( 0.03000000000000002318, 0.1732411613907041126, 0.000000000000000000 ) ) ;
#302 = EDGE_CURVE ( 'NONE', #45, #51, #137, .T. ) ;
#303 = VERTEX_POINT ( 'NONE', #260 ) ;
#304 = DIRECTION ( 'NONE',  ( 0.000000000000000000, 0.000000000000000000, 1.000000000000000000 ) ) ;
#305 = VECTOR ( 'NONE', #160, 39.37007874015748143 ) ;
#306 = DIRECTION ( 'NONE',  ( -0.7071067811865459074, 0.7071067811865491270, 0.000000000000000000 ) ) ;
#307 = SURFACE_STYLE_FILL_AREA ( #66 ) ;
#308 = EDGE_CURVE ( 'NONE', #371, #51, #257, .T. ) ;
#309 = VERTEX_POINT ( 'NONE', #329 ) ;
#310 = PLANE ( 'NONE',  #247 ) ;
#311 = VECTOR ( 'NONE', #312, 39.37007874015748143 ) ;
#312 = DIRECTION ( 'NONE',  ( -1.000000000000000000, -0.000000000000000000, -0.000000000000000000 ) ) ;
#313 = DIRECTION ( 'NONE',  ( -0.7071067811865491270, 0.7071067811865459074, 0.000000000000000000 ) ) ;
#314 = ORIENTED_EDGE ( 'NONE', *, *, #91, .T. ) ;
#315 = CARTESIAN_POINT ( 'NONE',  ( 0.3542519685039368649, 0.1732411613907041126, 0.000000000000000000 ) ) ;
#316 = EDGE_LOOP ( 'NONE', ( #299, #195, #269, #273 ) ) ;
#317 = EDGE_LOOP ( 'NONE', ( #224, #106, #367, #346 ) ) ;
#318 = DIRECTION ( 'NONE',  ( 0.000000000000000000, 0.000000000000000000, 1.000000000000000000 ) ) ;
#319 = VECTOR ( 'NONE', #50, 39.37007874015748143 ) ;
#320 = ORIENTED_EDGE ( 'NONE', *, *, #276, .F. ) ;
#321 = DIRECTION ( 'NONE',  ( -1.000000000000000000, -0.000000000000000000, -0.000000000000000000 ) ) ;
#322 = EDGE_CURVE ( 'NONE', #371, #49, #228, .T. ) ;
#323 = EDGE_LOOP ( 'NONE', ( #171, #72, #352, #148 ) ) ;
#324 = DIRECTION ( 'NONE',  ( 0.000000000000000000, 1.000000000000000000, 0.000000000000000000 ) ) ;
#325 = PRODUCT_DEFINITION_SHAPE ( 'NONE', 'NONE',  #141 ) ;
#326 = CARTESIAN_POINT ( 'NONE',  ( 0.4319990223008384200, 0.09549410759380287661, -0.07774705379690122209 ) ) ;
#327 = AXIS2_PLACEMENT_3D ( 'NONE', #206, #144, #344 ) ;
#328 = DIRECTION ( 'NONE',  ( -1.000000000000000000, -0.000000000000000000, -0.000000000000000000 ) ) ;
#329 = CARTESIAN_POINT ( 'NONE',  ( 0.000000000000000000, 0.1432411613907039472, -0.03000000000000015848 ) ) ;
#330 = EDGE_LOOP ( 'NONE', ( #117, #320, #40, #134 ) ) ;
#331 = VERTEX_POINT ( 'NONE', #1 ) ;
#332 = CARTESIAN_POINT ( 'NONE',  ( 0.3842519685039370025, 0.000000000000000000, 0.000000000000000000 ) ) ;
#333 = AXIS2_PLACEMENT_3D ( 'NONE', #118, #89, #304 ) ;
#334 = ADVANCED_FACE ( 'NONE', ( #289 ), #379, .T. ) ;
#335 = EDGE_LOOP ( 'NONE', ( #187, #33, #241, #130 ) ) ;
#336 = DIRECTION ( 'NONE',  ( 0.000000000000000000, 1.000000000000000000, 0.000000000000000000 ) ) ;
#337 = EDGE_CURVE ( 'NONE', #75, #340, #384, .T. ) ;
#338 = UNCERTAINTY_MEASURE_WITH_UNIT (LENGTH_MEASURE( 1.000000000000000082E-05 ), #240, 'distance_accuracy_value', 'NONE');
#339 = LINE ( 'NONE', #341, #209 ) ;
#340 = VERTEX_POINT ( 'NONE', #354 ) ;
#341 = CARTESIAN_POINT ( 'NONE',  ( -0.02774705379690126442, 0.1154941075938025752, -0.1154941075938025752 ) ) ;
#342 = VECTOR ( 'NONE', #156, 39.37007874015748143 ) ;
#343 = ORIENTED_EDGE ( 'NONE', *, *, #322, .F. ) ;
#344 = DIRECTION ( 'NONE',  ( 0.000000000000000000, -0.000000000000000000, -1.000000000000000000 ) ) ;
#345 = CARTESIAN_POINT ( 'NONE',  ( 0.3842519685039370025, 0.000000000000000000, 0.000000000000000000 ) ) ;
#346 = ORIENTED_EDGE ( 'NONE', *, *, #225, .T. ) ;
#347 = VECTOR ( 'NONE', #46, 39.37007874015748143 ) ;
#348 =( NAMED_UNIT ( * ) PLANE_ANGLE_UNIT ( ) SI_UNIT ( $, .RADIAN. ) );
#349 = EDGE_CURVE ( 'NONE', #340, #244, #83, .T. ) ;
#350 = CARTESIAN_POINT ( 'NONE',  ( 0.3842519685039370025, 0.1732411613907041126, -0.1732411613907041126 ) ) ;
#351 = ORIENTED_EDGE ( 'NONE', *, *, #256, .F. ) ;
#352 = ORIENTED_EDGE ( 'NONE', *, *, #308, .F. ) ;
#353 = EDGE_CURVE ( 'NONE', #303, #49, #86, .T. ) ;
#354 = CARTESIAN_POINT ( 'NONE',  ( 0.3842519685039370025, 0.03000000000000002318, -0.03000000000000002318 ) ) ;
#355 = AXIS2_PLACEMENT_3D ( 'NONE', #32, #87, #63 ) ;
#356 = CARTESIAN_POINT ( 'NONE',  ( 0.03000000000000002318, 0.000000000000000000, 0.000000000000000000 ) ) ;
#357 = CARTESIAN_POINT ( 'NONE',  ( 0.03000000000000002318, 0.000000000000000000, -0.1732411613907041126 ) ) ;
#358 = DIRECTION ( 'NONE',  ( 0.000000000000000000, 0.000000000000000000, -1.000000000000000000 ) ) ;
#359 = PLANE ( 'NONE',  #182 ) ;
#360 = VECTOR ( 'NONE', #318, 39.37007874015748143 ) ;
#361 = CARTESIAN_POINT ( 'NONE',  ( 0.03000000000000002318, 0.000000000000000000, 0.000000000000000000 ) ) ;
#362 = DIRECTION ( 'NONE',  ( 0.000000000000000000, -1.000000000000000000, 0.000000000000000000 ) ) ;
#363 = EDGE_CURVE ( 'NONE', #244, #165, #221, .T. ) ;
#364 = DIRECTION ( 'NONE',  ( 0.000000000000000000, 0.000000000000000000, 1.000000000000000000 ) ) ;
#365 = CARTESIAN_POINT ( 'NONE',  ( 0.3842519685039370025, 0.000000000000000000, 0.000000000000000000 ) ) ;
#366 = PLANE ( 'NONE',  #333 ) ;
#367 = ORIENTED_EDGE ( 'NONE', *, *, #375, .F. ) ;
#368 = CARTESIAN_POINT ( 'NONE',  ( 0.03000000000000002318, 0.000000000000000000, -0.1732411613907041126 ) ) ;
#369 = VECTOR ( 'NONE', #180, 39.37007874015748143 ) ;
#370 =( NAMED_UNIT ( * ) SI_UNIT ( $, .STERADIAN. ) SOLID_ANGLE_UNIT ( ) );
#371 = VERTEX_POINT ( 'NONE', #356 ) ;
#372 = CARTESIAN_POINT ( 'NONE',  ( 0.03000000000000002318, 0.000000000000000000, 0.000000000000000000 ) ) ;
#373 = EDGE_LOOP ( 'NONE', ( #213, #19, #121, #174 ) ) ;
#374 = FACE_OUTER_BOUND ( 'NONE', #330, .T. ) ;
#375 = EDGE_CURVE ( 'NONE', #74, #21, #168, .T. ) ;
#376 = AXIS2_PLACEMENT_3D ( 'NONE', #111, #237, #362 ) ;
#377 = LINE ( 'NONE', #99, #84 ) ;
#378 = EDGE_CURVE ( 'NONE', #164, #371, #80, .T. ) ;
#379 = PLANE ( 'NONE',  #203 ) ;
#380 = ORIENTED_EDGE ( 'NONE', *, *, #375, .T. ) ;
#381 = CARTESIAN_POINT ( 'NONE',  ( 0.4319990223008384200, 0.07774705379690122209, -0.09549410759380287661 ) ) ;
#382 = MECHANICAL_DESIGN_GEOMETRIC_PRESENTATION_REPRESENTATION (  '', ( #146 ), #126 ) ;
#383 = PLANE ( 'NONE',  #113 ) ;
#384 = LINE ( 'NONE', #85, #115 ) ;
#385 = DIMENSIONAL_EXPONENTS ( 1.000000000000000000, 0.000000000000000000, 0.000000000000000000, 0.000000000000000000, 0.000000000000000000, 0.000000000000000000, 0.000000000000000000 ) ;
ENDSEC;
END-ISO-10303-21;
